<?xml version="1.0" encoding="UTF-8"?>
<!DOCTYPE svg PUBLIC "-//W3C//DTD SVG 1.1//EN" "http://www.w3.org/Graphics/SVG/1.1/DTD/svg11.dtd">
<!-- Creator: CorelDRAW 2018 (64-Bit Evaluation Version) -->
<svg xmlns="http://www.w3.org/2000/svg" xml:space="preserve" width="16.8367mm" height="16.8368mm" version="1.1" style="shape-rendering:geometricPrecision; text-rendering:geometricPrecision; image-rendering:optimizeQuality; fill-rule:evenodd; clip-rule:evenodd"
viewBox="0 0 280.73 280.73"
 xmlns:xlink="http://www.w3.org/1999/xlink">
 <defs>
  <style type="text/css">
   <![CDATA[
    .fil1 {fill:#010101}
    .fil0 {fill:#138C01}
   ]]>
  </style>
 </defs>
 <g id="PowerClip_x0020_Contents">
  <metadata id="CorelCorpID_0Corel-Layer"/>
  <g id="_2729214341488">
   <path class="fil0" d="M119.79 268.39c0.12,-0.71 3.65,-6.44 4.32,-7.55 0.7,-1.15 1.53,-2.5 2.2,-3.7 0.34,-0.61 1.71,-3.28 2.36,-3.63 0.39,0.97 6.11,15.33 6.22,16l-3.53 -0.22c-0.43,-0.64 -0.48,-1.71 -0.96,-2.27l-6.09 -0.48 -1.19 2.09 -3.34 -0.23zm18.48 12.34l-0.23 0c-0.79,-0.01 -1.17,-0.12 -1.87,-0.14 -0.71,-0.02 -1.48,0 -2.2,0.01 -0.92,0.01 -1.32,-0.12 -2.05,-0.14 -5.17,-0.13 -10.66,-0.98 -15.77,-1.8 -0.37,-0.06 -0.58,-0.17 -0.88,-0.22l-6.45 -1.23c-2.3,-0.67 -6.82,-1.66 -8.66,-2.32 -2.73,-0.98 -5.52,-1.7 -8.22,-2.76l-7.83 -3.15c-0.3,-0.15 -0.43,-0.24 -0.74,-0.36 -2.28,-0.85 -4.56,-2.08 -6.72,-3.16l-1.44 -0.76c-2.88,-1.47 -5.6,-3.16 -8.38,-4.8l-9.19 -6.18c-0.87,-0.59 -1.68,-1.21 -2.52,-1.87 -0.87,-0.68 -1.6,-1.24 -2.47,-1.92l-3.95 -3.32c-0.02,-0.02 -0.05,-0.05 -0.07,-0.06l-0.23 -0.19c-0.02,-0.02 -0.05,-0.04 -0.07,-0.06l-2.77 -2.45c-1.5,-1.45 -2.91,-2.78 -4.39,-4.26l-3.07 -3.11c-0.02,-0.02 -0.05,-0.05 -0.07,-0.07l-7.26 -8.39c-0.63,-0.82 -1.24,-1.67 -1.9,-2.49l-3.73 -5.06 -7.59 -12.17c-0.29,-0.51 -0.54,-0.95 -0.78,-1.42 -0.26,-0.49 -0.45,-0.93 -0.74,-1.45 -1.07,-1.91 -1.93,-3.91 -2.92,-5.87 -0.16,-0.31 -0.22,-0.42 -0.36,-0.74l-7.37 -20.08c-1.15,-3.48 -1.81,-7.06 -2.55,-10.63l-1.33 -7.45c-0.42,-2.54 -0.62,-5.31 -0.9,-7.89 -0.17,-1.56 -0.44,-4.51 -0.44,-6.15l-0.14 -6.31 0 -0.01 0.14 -4.25c0.09,-2.84 0.08,-5.54 0.45,-8.34 0.33,-2.55 0.48,-5.32 0.9,-7.88l0.92 -5.66c0.13,-0.63 0.3,-1.16 0.41,-1.79 0.15,-0.8 0.18,-1.12 0.36,-1.84 0.13,-0.52 0.23,-1.32 0.36,-1.83 0.32,-1.15 0.61,-2.31 0.9,-3.49 0.27,-1.07 1.04,-4.25 1.41,-5.18 0.61,-1.5 0.99,-3.41 1.59,-5 1.02,-2.69 1.91,-5.33 3.02,-7.96l0.63 -1.57c1.05,-2.53 2.32,-5.07 3.45,-7.53 1.13,-2.44 2.5,-4.83 3.83,-7.15 0.29,-0.49 0.48,-0.9 0.79,-1.41l2.49 -4.1c1.66,-2.65 3.59,-5.23 5.35,-7.82 1.17,-1.73 2.53,-3.33 3.81,-4.97l5.57 -6.51c0.13,-0.15 0.12,-0.16 0.25,-0.3 2.27,-2.58 4.73,-5.08 7.27,-7.42l4.47 -4.04c0.2,-0.17 -0.05,0.04 0.15,-0.13l1.81 -1.49c3.88,-3.32 8.24,-6.73 12.56,-9.41 0.5,-0.31 0.81,-0.59 1.3,-0.9 0.51,-0.32 0.87,-0.5 1.36,-0.83 3.12,-2.1 6.48,-3.8 9.74,-5.63 0.27,-0.15 0.45,-0.24 0.72,-0.38 0.31,-0.15 0.47,-0.25 0.71,-0.38l4.43 -2.16c2.01,-1.01 4.08,-1.75 6.13,-2.66 0.51,-0.22 1.01,-0.39 1.56,-0.64 2.87,-1.29 5.96,-2.12 8.91,-3.17 3.5,-1.24 8.64,-2.63 12.12,-3.25 0.35,-0.06 0.57,-0.15 0.86,-0.24 1.52,-0.44 7.5,-1.37 9.31,-1.67 1.16,-0.19 2.72,-0.28 3.9,-0.49 1.83,-0.32 8.11,-0.85 10.14,-0.84l12.77 -0c1.93,-0.01 8.2,0.58 10.13,0.85l5.79 0.8c1.37,0.11 8.02,1.44 9.22,1.76 3.45,0.94 7.01,1.69 10.37,2.81 3.25,1.08 6.61,2.09 9.7,3.48l11.37 5.1c0.31,0.15 0.44,0.19 0.76,0.34 0.29,0.15 0.46,0.25 0.71,0.39l4.97 2.72c0.47,0.28 0.9,0.5 1.42,0.78l6.76 4.23c0.52,0.31 0.86,0.59 1.29,0.9 4.59,3.26 9.11,6.56 13.34,10.27l0.58 0.52c0.03,0.03 0.12,0.1 0.15,0.13 0.12,0.1 0.03,0.02 0.15,0.12 1,0.84 1.84,1.81 2.87,2.62 1.57,1.24 4.04,3.9 5.47,5.38 0.12,0.12 0.15,0.16 0.26,0.29l4.95 5.48c0.37,0.39 0.64,0.78 0.98,1.21l1.01 1.19c1.63,1.87 3.38,4.18 4.78,6.2l5.35 7.83c2.1,3.43 4.19,6.89 5.98,10.49l3.26 6.62c0.14,0.3 0.16,0.51 0.29,0.81 0.1,0.24 0.24,0.46 0.37,0.73 1.92,4.1 4.16,10.39 5.38,14.38l0.97 3.42c0.67,2.02 1.05,4.04 1.59,6.1 0.1,0.39 0.2,0.55 0.27,0.83l0.36 1.84c0.17,0.6 0.19,1.15 0.34,1.86 0.14,0.66 0.31,1.08 0.41,1.78l0.92 5.67c0.42,2.54 0.6,5.3 0.9,7.89 0.16,1.42 0.22,2.6 0.3,4.09l0.13 12.63c-0.02,0.71 0,1.48 0.01,2.2 0.01,0.92 -0.12,1.32 -0.14,2.05 -0.03,1.41 -0.13,2.73 -0.31,4.08 -0.07,0.56 -0.05,1.38 -0.13,2.06l-2.8 16.96c-0.7,2.39 -1.67,6.83 -2.32,8.66l-0.51 1.68c-1.33,4.09 -2.82,8.1 -4.4,12.07l-0.99 2.3c-0.15,0.3 -0.24,0.43 -0.36,0.74 -0.67,1.78 -1.64,3.55 -2.43,5.25 -1.23,2.66 -4.07,7.87 -5.43,9.94 -0.31,0.47 -0.57,0.88 -0.85,1.35 -0.12,0.2 -0.09,0.19 -0.19,0.36l-3.25 4.99c-2.64,3.8 -7.35,10.25 -10.55,13.61 -0.14,0.15 -0.12,0.13 -0.26,0.29l-3.4 3.74c-1.66,1.76 -3.35,3.54 -5.14,5.16l-1.98 1.87c-0.42,0.41 -0.73,0.6 -1.17,1.03 -0.12,0.12 -0.16,0.16 -0.29,0.27l-3.83 3.3 -14.65 10.61c-1.78,1.2 -3.66,2.18 -5.51,3.28 -2.79,1.66 -5.68,3.2 -8.65,4.53 -0.4,0.18 -0.35,0.19 -0.73,0.37l-3.03 1.36c-0.24,0.1 -0.46,0.24 -0.73,0.37 -3.59,1.68 -7.35,2.93 -11.07,4.3 -1.01,0.37 -2.31,0.78 -3.31,1.08l-10.34 2.84 -11.16 2.02c-1.15,0.19 -2.66,0.3 -3.88,0.51 -1.26,0.22 -2.76,0.2 -4.01,0.39l-6.15 0.44c-0.7,-0 -1.51,-0.04 -2.2,-0l-6.27 0.14zm17.02 -27.62c3.95,-0.49 7.78,2.75 8.21,7.29 0.44,4.75 -2.65,8.02 -6.78,8.63 -4.04,0.59 -8.08,-2.79 -8.49,-7.25 -0.43,-4.68 2.4,-8.1 7.06,-8.68zm-20.14 8.54c0,-7.54 8.95,-9.24 12.21,-6.31l-0.28 3.6c-0.74,-0.28 -2.85,-2.69 -5.79,-1.38 -1.74,0.78 -2.73,2.38 -2.59,4.91 0.12,2.12 1.54,3.85 3.53,4.11 3.32,0.44 4.65,-1.62 5.4,-1.75l-0.16 3.7c-0.21,0.59 -2.8,1.44 -4.16,1.44 -1.98,0 -2.89,-0.14 -4.39,-1.03 -2.33,-1.38 -3.77,-3.66 -3.77,-7.29zm-29.24 3.29c0.03,-0.85 1.37,-6.3 1.67,-7.6 0.3,-1.29 1.39,-6.89 1.82,-7.39 0.44,0.24 1.58,2.09 1.93,2.63 0.77,1.19 5.17,7.77 5.51,7.98l1.81 -8 3.11 0.7c-0,0.63 -3.05,14.08 -3.42,15.18 -0.53,-0.19 -0.36,-0.19 -0.67,-0.65l-6.76 -9.94c-0.46,0.51 -1.52,6.78 -1.92,7.77 -0.56,0.07 -1.11,-0.13 -1.67,-0.25 -0.29,-0.06 -0.48,-0.09 -0.76,-0.16l-0.65 -0.26zm59.52 -1.9c1.25,0.25 2.33,0.75 3.75,0.56 1.1,-0.15 2.66,-0.72 2.36,-2.04 -0.34,-1.53 -4.01,-1.71 -6,-2.92 -1.86,-1.14 -2.88,-3.88 -1.19,-6.01 1.38,-1.75 4.19,-2.34 6.96,-1.91 0.15,0.97 0.68,2.36 0.65,3.27 -1.08,-0.24 -2.41,-0.74 -3.6,-0.52 -1.14,0.21 -2.3,1.28 -1.19,2.3 0.78,0.72 4.46,1.17 6.11,2.4 2.76,2.05 2.74,8.59 -5.13,8.59 -1.83,0 -1.59,0.18 -2.02,-1.3 -0.25,-0.88 -0.53,-1.53 -0.71,-2.42zm29.04 -18.03l1.55 4.31 4.64 0.04c-0.14,0.41 -3.27,2.51 -3.72,2.83l1.37 4.46c-1.06,-0.51 -2.75,-2.24 -3.8,-2.62 -1.07,0.5 -3.06,2.41 -3.76,2.59 0.06,-1.07 1.33,-3.3 1.28,-4.45 -0.74,-0.76 -3.46,-2.31 -3.65,-2.82l4.71 0 1.39 -4.35zm-115.51 -3.91c0.42,0.57 1.2,3.49 1.54,4.43l4.61 0.05c-0.49,0.56 -1.2,0.94 -1.79,1.38 -0.52,0.38 -1.46,0.96 -1.81,1.38 0.03,1.15 1.06,3.12 1.28,4.42 -0.94,-0.37 -2.77,-2.03 -3.72,-2.6 -0.53,0.15 -3.21,2.23 -3.89,2.65l1.39 -4.46c-0.58,-0.45 -1.24,-0.91 -1.88,-1.39 -0.63,-0.47 -1.28,-0.81 -1.79,-1.39l4.63 -0.03 1.44 -4.43zm126.64 -0.09c0.28,-0.67 1.39,-3.86 1.5,-4.46l1.47 4.47 4.67 0.04c-0.37,0.65 -2.7,1.9 -3.72,2.89l1.36 4.31c-0.49,-0.18 -3.38,-2.29 -3.74,-2.63l-3.82 2.69c0.16,-1.24 1.29,-3.34 1.31,-4.48 -0.49,-0.38 -3.4,-2.3 -3.68,-2.81l4.66 -0.02zm-139.17 -8.19l0.26 0.57c0.06,0.18 0.08,0.3 0.16,0.52l1.1 3.29 4.65 0.06c-0.46,0.44 -3.02,2.34 -3.7,2.66 0.15,1.47 1.19,3.04 1.3,4.48 -1.34,-0.61 -2.58,-2.04 -3.76,-2.6 -1.27,0.69 -2.7,2.19 -3.81,2.66 0.29,-0.99 1.31,-3.6 1.36,-4.53 -1.21,-0.75 -2.49,-1.8 -3.7,-2.71l4.67 -0.01 1.48 -4.39zm164.86 -2.33c4.41,-0.84 5.33,-4.22 2.9,-4.25 -1.66,-0.02 -5.45,2.27 -7.94,1.06 -1.98,-0.97 -3.6,-3.36 -2.52,-6.29 0.6,-1.64 3.27,-4.3 4.96,-4.69 0.76,0.52 2.19,1.73 3,2.47l-0.89 0.39c-0.28,0.1 -0.63,0.22 -0.9,0.33 -1.2,0.51 -3.95,2.21 -2.84,3.97 1.43,2.27 7.61,-3.22 10.82,0.98 3.15,4.14 -3.12,8.64 -4.12,8.51 -0.41,-0.19 -2.3,-2.02 -2.48,-2.46zm-194.35 -8.38c0.34,-0.5 8.03,-6.98 9.24,-8.04 0.54,-0.47 2.54,-2.43 3.31,-2.59l-0.55 13.58c0.65,-0.09 5.67,-5.15 6.67,-5.43 0.57,0.76 1.53,1.69 2.06,2.47l-6.16 5.38c-0.98,0.83 -2.07,1.77 -3.1,2.67 -0.63,0.56 -2.53,2.34 -3.15,2.55 -0.22,-3.56 0.68,-10.94 0.48,-13.64 -1.41,0.79 -5.72,5.18 -6.75,5.51 -0.64,-0.84 -1.62,-1.75 -2.04,-2.46zm195.71 -11.12c0.22,-0.49 1.71,-2.63 2.08,-2.9 0.69,0.31 4.14,2.87 5.12,3.54 0.88,0.6 4.58,3.4 5.17,3.47 0.77,-0.9 2.11,-3.34 2.88,-3.88l2 1.34c0.39,0.28 0.27,0.13 0.52,0.49l-7.9 11.15 -2.51 -1.81c0.35,-1.13 2.47,-3.15 2.67,-4.12 -0.68,-0.79 -9.48,-6.55 -10.03,-7.28zm-200.92 3.71c0.75,-0.75 2.27,-1.61 3.18,-2.29l6.46 -4.51c0.87,-0.57 2.5,-1.98 3.24,-2.13 0.46,0.47 1.86,2.42 2,3.09 -0.69,0.26 -2.54,1.69 -3.29,2.21 -1.02,0.72 -2.1,1.48 -3.15,2.19 -1.69,1.15 -4.98,3.63 -6.41,4.46 -0.47,-0.66 -1.85,-2.48 -2.02,-3.02zm3.13 -23.2c1.13,0.51 2.59,2.05 3.28,2.9 6.83,8.24 -3.48,17.66 -10.92,12.7 -2.43,-1.62 -4.55,-5.51 -3.86,-8.29l3.43 -1.42c-0.4,2.23 -0.44,4.12 1.01,5.7 1.13,1.23 2.98,2.24 5.27,1.44 1.65,-0.57 3.11,-1.88 3.58,-3.67 0.5,-1.88 -0.59,-4.49 -1.95,-5.13l-1.9 1.12c0.25,0.83 0.99,1.77 1.34,2.6 -0.58,0.44 -2.01,1.26 -2.71,1.5 -0.48,-0.76 -3.08,-5.31 -3.13,-5.84l6.56 -3.61zm215.37 13.47c0.85,0.47 3.05,1.57 3.7,2.18 -0.13,0.53 -0.52,1.06 -0.78,1.53l-0.85 1.34c-0.83,-0.29 -2.74,-1.52 -3.61,-2.01 -1.22,-0.69 -2.27,-1.29 -3.58,-2.04 -1.21,-0.7 -2.45,-1.35 -3.59,-2.04 -0.55,-0.33 -3.16,-1.57 -3.36,-2.15 1.67,-0.58 12.3,-3.7 12.9,-4.11 -0.54,-0.57 -2.8,-1.68 -3.62,-2.14 -0.58,-0.33 -1.28,-0.71 -1.83,-1.05 -0.61,-0.37 -1.26,-0.66 -1.81,-1.07 0.12,-0.65 1.26,-2.55 1.64,-2.91 0.69,0.23 13.71,7.69 14.02,7.99 -0.21,0.4 -0.13,0.28 -0.67,0.45l-9.04 2.78c-0.8,0.25 -2.49,0.66 -3.21,1.02 0.09,0.1 0.04,0.07 0.2,0.2l1.63 0.97c0.63,0.35 1.2,0.68 1.84,1.04zm-3.56 -17.31c0.07,-0.69 2.87,-7.72 3.38,-9.07l14.66 5.63c-0.1,0.68 -2.89,7.84 -3.33,8.91 -0.68,-0.06 -2.47,-0.78 -2.92,-1.08 0.07,-0.59 0.76,-2.19 1.01,-2.86 0.24,-0.62 0.9,-2.05 0.98,-2.83l-2.63 -0.99c-0.62,1.21 -1.31,3.88 -1.97,4.82l-2.84 -1.16c0.35,-1.19 1.62,-3.73 1.75,-4.84l-2.87 -1.06c-0.81,1.05 -1.61,4.81 -2.33,5.6 -0.62,-0.06 -2.31,-0.76 -2.89,-1.08zm-215.85 -8.72c0.44,1.62 3.44,8 3.57,8.99 -0.2,0.18 -13.82,5.78 -14.49,5.91 -0.27,-0.34 -3.51,-8.24 -3.62,-8.79 0.52,-0.5 2.11,-0.97 2.8,-1.24 0.46,0.5 2.01,4.83 2.33,5.5 0.64,-0.08 2.2,-0.78 2.76,-1.05l-1.91 -4.83 2.86 -1.08c1.17,1.44 1.2,4.79 2.41,4.55l2.51 -1.03c-0.25,-1.17 -1.99,-4.53 -2.21,-5.76l2.99 -1.17zm-9.55 -8.62c0.66,-0.53 3.92,-5.03 5.08,-6.24 0.15,0.16 -0.02,-0.17 0.21,0.31 0.08,0.18 0.08,0.2 0.14,0.41 0.57,2.01 1.17,2.9 0.39,3.83 -0.31,0.37 -0.59,0.67 -0.89,1.04 -0.61,0.74 -1.13,1.36 -1.8,2.18 -0.88,1.07 -1.68,1.65 -1.43,2.43 1.66,-0.13 4.35,-1.51 6,-1.6 0.28,0.86 0.82,2.48 0.9,3.39l-15.08 4.36c-0.44,-1.49 -0.93,-3.02 -1.32,-4.62 -0.87,-3.46 -0.01,-6.88 3.7,-7.2 2.54,-0.22 3.34,1.37 4.11,1.7zm248.44 -4.06c-0.05,0.76 -0.33,1.67 -0.48,2.35 -0.17,0.77 -0.36,1.62 -0.54,2.34 -2.43,9.75 -13.13,8.8 -15.36,1.38 -0.82,-2.72 0.36,-6.66 1.06,-9.52l15.32 3.45zm-258.83 -1.53c-0.63,-3.2 -0.93,-3.56 0.09,-3.73l12.71 -2.11c2.23,-0.38 2.12,-0.65 2.28,0.32 0.14,0.81 0.4,2.08 0.42,2.98l-15.5 2.54zm259.75 -3.34c-0.72,0.02 -1.77,-0.18 -2.62,-0.32 -5.01,-0.79 -13.62,-0.37 -12.69,-8.13 0.85,-7.04 6.64,-6.17 11.65,-5.36 1.48,0.24 3.85,0.65 5.4,0.71l-0.52 3.6c-3.45,-0.21 -9.31,-1.72 -11.4,-0.96 -1.08,0.4 -1.67,1.28 -1.79,2.43 -0.32,2.94 2.26,3.5 4.76,3.77 2.57,0.29 5.07,0.82 7.59,1.02l-0.38 3.23zm-262.13 -11.07c0.58,-0.55 8.05,-4.65 9.77,-5.74l5.74 -3.31c0.33,0.87 0.34,2.69 0.37,3.78 -0.71,0.41 -1.54,0.79 -2.12,1.16 -0.1,1.13 0.09,2.23 0.17,3.18 0.1,1.16 0.1,2.08 0.24,3.29l2.36 0.93 0.27 3.56c-1.04,-0.2 -3.24,-1.24 -4.27,-1.65 -1.39,-0.56 -2.85,-1.14 -4.23,-1.7 -0.59,-0.24 -7.92,-2.97 -8.3,-3.5zm260.41 -19.87l3.15 -0.08c0.05,2.28 -0.02,4.66 0.08,6.91 0.04,0.8 0.29,6.02 0.03,6.88l-3.11 0.04 -0.02 -5.04 -12.59 0.19 -0.06 -3.71 12.55 -0.14 -0.01 -5.06zm-128.5 -95.02l6.2 0.25c1.46,0.16 3.15,-0.01 4.63,0.31 0.49,0.1 0.88,0.1 1.47,0.18l5.4 0.78c2.14,0.23 8.41,1.63 10.67,2.37l12.22 4.25c0.81,0.36 1.45,0.66 2.28,1.01 0.41,0.18 0.61,0.31 1.02,0.49 0.26,0.12 0.34,0.15 0.56,0.27 0.27,0.14 0.25,0.14 0.56,0.27 0.75,0.31 1.49,0.71 2.22,1.08l6.31 3.44c0.69,0.4 1.33,0.83 2.04,1.25 3.18,1.91 6.14,4.2 9.12,6.39l0.44 0.38c0.63,0.55 1.21,0.93 1.82,1.48l3.97 3.44c0.19,0.17 0.25,0.22 0.43,0.4l4.87 4.88c0.29,0.31 0.53,0.51 0.82,0.83 0.11,0.12 0.09,0.1 0.2,0.22l2.51 2.84c0.14,0.17 0.24,0.26 0.38,0.44l2.35 2.86c0.08,0.1 0.1,0.15 0.17,0.24l4.29 5.87c2.09,3.05 3.96,6.26 5.69,9.55l0.59 1.06c0.33,0.73 0.73,1.49 1.09,2.2 2.3,4.55 5.15,11.6 6.37,16.55l0.72 2.58c0.89,3.02 1.6,6.31 1.99,9.4l0.81 5.78c0.05,0.51 0.2,0.95 0.25,1.4l0.16 3.14c-0.01,0.98 0.27,2.22 0.23,2.99l-0.01 7.91c0.08,0.74 -0.22,2.05 -0.22,2.96l-0.14 3.15c-0.04,0.49 -0.2,0.95 -0.25,1.4l-1.5 9.89 -2.7 10.35c-0.71,2.45 -1.68,4.79 -2.59,7.15 -0.17,0.44 -0.35,0.86 -0.47,1.18 -0.21,0.55 -0.28,0.67 -0.49,1.16 -0.36,0.84 -0.64,1.47 -1.01,2.28 -0.79,1.71 -1.68,3.89 -2.67,5.43 -0.63,0.98 -1.13,2.19 -1.74,3.2 -1.06,1.77 -2.94,5.11 -4.28,6.83l-3.51 4.87c-0.29,0.39 -0.42,0.55 -0.71,0.94l-0.19 0.23c-0.01,0.01 -0.13,0.14 -0.2,0.22l-1.85 2.27c-0.13,0.17 -0.15,0.2 -0.31,0.38l-0.26 0.29c-0.02,0.02 -0.05,0.05 -0.06,0.07 -0.02,0.02 -0.04,0.05 -0.06,0.08l-4.93 5.37c-0.02,0.02 -0.05,0.05 -0.07,0.07 -0.68,0.68 -1.38,1.54 -2.12,2.13l-8.83 7.51 -4.71 3.39c-1.75,1.38 -5.34,3.45 -7.08,4.45l-10.84 5.36c-0.44,0.2 -0.63,0.28 -1.16,0.49l-2.96 1.16c-0.24,0.1 -0.33,0.16 -0.59,0.24l-9.94 3.1c-0.89,0.26 -1.76,0.42 -2.64,0.65l-12.22 2.05c-0.51,0.05 -0.95,0.2 -1.4,0.25l-3.14 0.16c-0.98,-0.01 -2.22,0.27 -2.99,0.23l-7.91 -0.01c-0.74,0.08 -2.05,-0.22 -2.96,-0.22l-3.15 -0.14c-0.49,-0.04 -0.95,-0.2 -1.4,-0.25 -4.26,-0.46 -9.22,-1.19 -13.45,-2.34 -1.29,-0.35 -2.59,-0.58 -3.91,-1.03 -1.68,-0.57 -3.43,-0.92 -5.04,-1.55 -3.31,-1.31 -7.42,-2.52 -10.47,-4.22 -1.76,-0.98 -3.69,-1.79 -5.47,-2.77l-9.21 -5.61c-0.37,-0.29 -0.57,-0.42 -0.97,-0.68l-4.91 -3.6c-0.12,-0.1 -0.08,-0.07 -0.22,-0.2l-5.65 -4.79c-0.02,-0.02 -0.05,-0.05 -0.07,-0.07l-2.6 -2.48c-0.31,-0.35 -0.48,-0.52 -0.82,-0.82l-0.49 -0.47c-1.24,-1.15 -2.33,-2.42 -3.45,-3.69l-4.28 -5.06c-0.02,-0.02 -0.05,-0.05 -0.06,-0.08l-6.24 -8.86 -4.76 -8.42c-1.84,-3.66 -3.65,-7.45 -4.96,-11.38 -0.25,-0.76 -0.55,-1.6 -0.87,-2.43 -0.95,-2.5 -1.62,-5.04 -2.28,-7.61l-1.73 -8.02 -1.16 -8.45c-0.01,-1.15 -0.07,-1.99 -0.13,-3.16l-0.14 -2.88c0.04,-0.73 -0.26,-3.94 -0.13,-5.49l0.76 -10.5c0.42,-2.31 0.51,-4.26 1.08,-6.88l0.81 -4.14c0.44,-2.14 1.17,-4.3 1.69,-6.41 0.15,-0.59 0.23,-0.74 0.4,-1.24l1.66 -4.93c1.12,-3.33 2.53,-6.08 3.85,-9.19 0.33,-0.77 0.71,-1.45 1.09,-2.2 0.2,-0.39 0.32,-0.75 0.53,-1.12l1.76 -3.18c1.38,-2.53 2.93,-4.99 4.6,-7.34l7.73 -9.98c0.03,-0.03 0.14,-0.15 0.2,-0.21 0.14,-0.15 0.07,-0.07 0.2,-0.21l5.02 -5.28c0.03,-0.03 0.11,-0.11 0.13,-0.14l3.39 -3.2c0.2,-0.17 0.25,-0.21 0.45,-0.38l0.36 -0.33c0.02,-0.02 0.05,-0.05 0.07,-0.07 0.34,-0.31 0.58,-0.47 0.89,-0.76l10.31 -7.81c2.88,-1.84 5.77,-3.62 8.8,-5.21 0.35,-0.18 0.25,-0.17 0.5,-0.33 1.76,-1.08 6.67,-3.18 8.93,-4.11l5.98 -2.25c0.84,-0.32 1.62,-0.53 2.48,-0.82l9.15 -2.38 6.73 -1.23c1.41,-0.22 3.02,-0.28 4.39,-0.55 1.5,-0.3 3.15,-0.2 4.62,-0.32 1.95,-0.16 4.24,-0.27 6.32,-0.27zm-114.32 84.51l-0.5 3.72c-0.71,0.26 -1.8,0.45 -2.46,0.81 -0.28,2.11 -0.71,4.37 -0.81,6.39l2.07 1.24c0.01,0.42 -0.12,1.33 -0.21,1.84 -0.3,1.75 -0.11,1.95 -0.73,1.6 -0.17,-0.1 -0.31,-0.21 -0.5,-0.34l-2.86 -1.95c-1.29,-0.85 -10.91,-7.23 -11.18,-7.76l17.18 -5.54zm232.87 -1c-0.43,1.14 -0.96,2.28 -0.96,3.8 0,1.32 0.63,3.11 2.05,2.71 1.39,-0.39 2.42,-4.59 3.49,-6 2.61,-3.48 9.66,-2.16 7.69,6.82 -0.84,0.08 -2.88,0.5 -3.5,0.36 0.5,-0.95 1.68,-4.43 0.12,-5.33 -1.82,-1.04 -2.44,2.15 -3.07,3.64 -0.47,1.12 -0.99,2.19 -1.75,2.92 -2.01,1.92 -5.18,1.24 -6.74,-0.36 -1.9,-1.95 -1.59,-4.65 -1.36,-7.75l4.02 -0.82zm-236.69 -1.34c0,-0.55 1.09,-1.26 1.91,-2.91 0.52,-1.03 0.87,-2.95 -0.28,-3.53 -1.25,-0.63 -2.54,1.09 -3.05,1.57 -1.55,1.47 -3.2,4.05 -6.39,3.2 -1.38,-0.37 -2.08,-1.08 -2.62,-2.17 -1.18,-2.36 0.07,-5.76 1.31,-7.36 0.64,-0.02 2.76,0.5 3.45,0.69 -0.39,0.76 -1.38,1.39 -2.02,2.97 -0.57,1.42 0.12,3.24 1.68,2.36 1.06,-0.6 2.93,-3.7 5.08,-4.68 3.15,-1.43 7.97,1.34 6.34,7.03 -0.47,1.64 -1.16,2.52 -1.46,3.36l-3.96 -0.52zm231.53 -7.26c-0.92,-0.89 -1.96,-2.26 -2.61,-3.52 -5.11,-10.02 7.66,-16.25 13.1,-10.35 0.56,0.61 0.86,0.78 1.38,1.65 0.8,1.36 1.33,3.08 1.37,4.73 0.03,1.12 -0.22,1.74 -0.39,2.65l-3.67 0.68c0.24,-1.09 0.73,-1.43 0.77,-2.91 0.18,-6.18 -7.49,-6.98 -9.72,-2.53 -0.89,1.79 -0.44,4.22 0.74,5.44 0.58,-0.06 1.66,-0.37 2.22,-0.73l-0.8 -2.74c0.33,-0.25 2.51,-0.91 2.95,-0.94l1.93 6.31 -7.26 2.27zm-228.5 -5.25c0.29,-0.99 0.98,-0.59 2.33,-2.74 1.59,-2.52 0.19,-4.52 -1.78,-3.28l-1.13 0.79c-0.98,0.77 -1.67,1.64 -3.02,2.34 -2.83,1.46 -5.62,0.08 -6.33,-2.37 -0.69,-2.38 0.86,-5.67 2.32,-7.02l3.31 1.26c-0.84,0.78 -1.77,1.47 -2.38,2.58 -0.81,1.48 -0.26,3.25 1.44,2.54 1.13,-0.47 3.4,-3.4 5.75,-4.01 2.99,-0.78 7.58,2.07 5.2,7.83 -0.51,1.24 -1.27,2.04 -1.77,3.03 -1.03,0.02 -2.84,-0.74 -3.94,-0.93zm3.99 -28.97c2,-0.33 4.91,1.17 6.03,2.1 3.37,2.8 4.05,8.02 0.96,11.5 -4.94,5.57 -14.11,1.7 -14.63,-4.72 -0.29,-3.57 1.39,-6.67 4.31,-8.07 1.37,-0.66 1.74,-0.54 3.33,-0.81zm211.78 6.27c0.61,-0.48 6,-3.24 7.11,-3.83 1.12,-0.59 6.57,-3.66 7.3,-3.76 -0.06,1.32 -1.32,5.17 -1.7,6.65 -0.3,1.19 -0.57,2.09 -0.87,3.23 -0.21,0.8 -0.8,2.54 -0.79,3.33 1.36,-0.54 6.87,-3.75 7.61,-3.96 0.27,0.28 1.4,2.46 1.56,2.96 -1.64,1.04 -14.03,7.53 -14.44,7.66 0.01,-1.42 3.41,-12.27 3.31,-13.31l-7.49 3.96c-0.35,-0.35 -1.51,-2.51 -1.61,-2.93zm-3.98 -6.32c0.48,-0.51 3.87,-2.56 4.94,-3.26 1.69,-1.12 7.57,-5.03 8.27,-5.3 0.5,0.99 1.6,2.21 1.89,3.13 -1.72,1.06 -12.54,8.3 -13.23,8.46 -0.57,-1.03 -1.39,-2.02 -1.87,-3.03zm-188.87 -7.9c-0.1,3.72 -2.62,6.64 -5.5,7.67 -3.69,1.33 -7.61,-0.51 -9.3,-2.59 -2.34,-2.89 -2.85,-6.59 -0.74,-9.78 0.76,-1.14 3.35,-3.99 4.58,-3.14l2.49 2.26c-0.92,0.44 -1.7,0.38 -2.8,1.16 -2.79,1.96 -2.78,5.67 0.2,7.82 4.34,3.13 8.37,-0.91 7.88,-5.88l3.19 2.47zm-9.27 -11.86c0.29,-0.56 2.06,-2.55 2.49,-2.69 1.46,1.51 11.29,9.51 11.71,10.24 -0.28,0.47 -2.04,2.51 -2.37,2.7l-10.4 -8.92c-0.37,-0.31 -1.27,-1.02 -1.43,-1.33zm198.63 -0.55c0.26,-0.33 1.98,-1.77 2.5,-1.89l7.44 9.42c0.4,0.52 0.79,0.79 0.94,1.43 -0.89,0.43 -1.66,1.46 -2.48,1.77 -0.87,-0.73 -2.34,-3.32 -3.16,-3.76 -1.25,0.74 -8.81,7.1 -9.75,7.52 -0.58,-0.31 -0.75,-0.76 -1.2,-1.34 -0.38,-0.49 -0.85,-0.95 -1.04,-1.47l7.38 -5.84c0.88,-0.67 1.68,-1.26 2.35,-1.88 -0.64,-0.98 -2.68,-3.32 -2.99,-3.95zm-183.81 6.65c-0.29,-1.36 -0.92,-2.97 -1.31,-4.35l-2.64 -8.62c-0.41,-1.37 -1.01,-2.86 -1.27,-4.3 0.81,0.04 3.37,1.15 4.32,1.52l8.33 3.16c0.83,0.29 3.52,1.24 4.16,1.67 -0.23,0.55 -2.28,2.42 -2.83,2.6 -0.48,-0.27 -1.55,-0.78 -2.14,-0.87l-4.67 4.44c0.18,0.49 0.74,1.85 0.69,2.49 -0.74,0.62 -2.16,2.06 -2.65,2.24zm183.54 -11.87c-0.14,0.45 -2.68,2.9 -3.26,3.57 -0.35,0.41 -0.49,0.54 -0.87,0.91l-2.4 2.55c-2.69,2.62 -6.41,3.25 -9.37,0.39 -2.93,-2.84 -3.07,-5.93 -0.39,-9.32 0.6,-0.76 0.97,-0.93 1.65,-1.79 0.9,-1.12 4.36,-4.36 4.88,-5.26 0.57,0.15 2.3,1.83 2.7,2.36 -0.41,1.19 -6.11,6.03 -7.12,8.19 -0.63,1.35 -0.24,2.67 0.73,3.49 2.8,2.38 4.87,-0.89 6.23,-2.16 0.89,-0.82 4.35,-4.79 4.9,-5.07 0.37,0.27 0.86,0.76 1.2,1.08 0.44,0.42 0.58,0.61 1.11,1.06zm-30.53 -5.77c0.41,-0.78 1.88,-2.49 2.41,-3.17 0.78,-0.99 6.71,-8.72 7.29,-9.19 1.44,1.14 2.85,2.12 4.28,3.41 4.43,3.99 1.17,8.64 -2.12,8.9 -2.93,0.23 -4.33,-1.58 -5.46,-2.11 -0.53,0.42 -2.91,3.83 -3.57,4.37 -0.4,-0.16 -2.61,-1.88 -2.83,-2.22zm-152.48 -4.26c0.29,-0.6 2.07,-1.79 2.63,-2.24 1.1,-0.88 7.57,-6.03 8.17,-6.28 0.48,0.72 1.38,1.63 1.88,2.48 -0.6,0.62 -3.59,2.71 -3.79,3.16 -0.02,0.49 7.13,8.74 7.54,9.93 -0.79,0.55 -2.17,1.82 -2.91,2.13l-7.69 -9.77 -3.96 3.04c-0.47,-0.71 -1.4,-1.61 -1.87,-2.45zm29.1 -19.34c5.12,-1.16 8.73,2.25 9.86,6.26 1.34,4.74 -1.89,9.19 -5.94,9.97 -4.91,0.94 -8.69,-2.25 -9.77,-6.2 -1.2,-4.37 1.1,-8.95 5.85,-10.03zm-15.42 9.07c0.87,-0.56 2.1,-1.47 2.99,-1.92 0.39,0.31 8.36,12.53 8.56,13.16 -0.36,0.37 -2.54,1.81 -3.1,1.95 -0.48,-0.97 -1.47,-2.37 -2.13,-3.37 -0.82,-1.24 -1.31,-1.96 -2.12,-3.23 -0.34,-0.54 -0.74,-1.15 -1.06,-1.68 -0.64,-1.09 -2.86,-4.06 -3.15,-4.91zm120.61 3.82c0.37,-0.67 2.1,-2.39 2.75,-3.18l6.7 -7.71c0.37,-0.42 0.92,-1.27 1.42,-1.46 0.12,0.23 0.21,10.62 0.22,11.87 0.78,-0.21 1.91,-1.09 2.61,-1.5 1.46,-0.86 6.82,-4.31 7.52,-4.5 -0.05,1.19 -2.06,6.52 -2.52,7.98 -0.82,2.61 -1.84,5.23 -2.53,7.75 -0.61,-0.12 -2.52,-1.22 -3.04,-1.61 0.03,-0.53 0.37,-1.21 0.53,-1.72 0.38,-1.2 1.64,-4.49 1.73,-5.2 -1.12,0.36 -6.6,4.31 -7.68,4.54l-0.14 -9.14c-1.25,1.23 -3.4,4.04 -4.79,5.52 -0.51,-0.09 -2.51,-1.16 -2.77,-1.66zm-7.75 -18.68c2.41,-0.56 4.94,0.35 6.39,1.53 1.49,1.21 2.62,2.91 2.98,5.24 0.37,2.41 -0.6,4.97 -1.69,6.47 -4.09,5.65 -13.25,3.91 -14.38,-3.6 -0.64,-4.25 1.99,-8.56 6.69,-9.64zm-53.44 -6.76c4.68,-0.72 8.65,3.16 8.92,7.31 0.18,2.78 -0.41,4.78 -1.78,6.46 -4.43,5.45 -13.5,2.97 -14.16,-4.67 -0.41,-4.78 2.3,-8.38 7.02,-9.1zm-20.2 3.99l3.65 11.63c0.41,1.27 0.95,2.7 1.2,3.95 -1.1,-0.1 -10.94,-5.31 -12.41,-5.68 0.11,0.91 1.49,4.82 1.86,6.14 0.18,0.67 0.47,1.31 0.61,1.99 -0.37,0.21 -2.55,0.92 -3.13,0.97l-0.26 -0.48c-0.03,-0.09 -0.11,-0.36 -0.16,-0.51l-3.36 -10.63c-0.24,-0.74 -1.15,-3.28 -1.1,-3.84 0.9,-0.06 11.22,5.51 12.4,5.67l-2.55 -8.26 3.25 -0.95zm63.06 14.59c-2.54,0.6 -4.94,0.82 -7.38,-0.77 -4.76,-3.1 -4.78,-9.28 -1.81,-12.64 4.04,-4.59 10.19,-3.13 12.44,-0.18l-1.18 3.61 -0.57 -0.62c-0.17,-0.22 -0.26,-0.32 -0.45,-0.51 -0.33,-0.34 -0.59,-0.62 -1.02,-0.91 -0.79,-0.54 -1.85,-0.96 -3.1,-0.9 -4.4,0.22 -6.13,6.99 -2.23,9.24 2.59,1.49 4.83,0.21 6.38,-0.21l-1.08 3.89zm-30.55 -2.89c-0.11,-1.51 0.1,-6.06 0.08,-7.96 -0.02,-1.9 0.17,-3.02 0.16,-3.84 -0.02,-1.36 -0.08,-2.57 -0.01,-3.94 0.74,-0.19 8.57,0.03 9.83,0.12l-0.19 3.11c-1.94,0.05 -4.18,-0.33 -6.07,-0.04l0.04 3.15 5.39 0.18 -0.01 3.02 -5.4 -0.03 -0.18 6.24 -3.63 -0.01z"/>
   <path class="fil0" d="M191.91 90.74c-0.8,0 -1.76,-0.55 -2.61,-0.55 -0.69,0 -1.09,0.22 -1.63,0.13 -0.7,-0.11 -2.14,-2.08 -3.46,-2.31 -0.73,-0.13 -0.94,-0.1 -1.6,-0.32 -1.47,-0.5 -2.94,-1.2 -4.56,-1.2 -2.53,0 -7.91,-0.3 -10.21,0.36 -0.86,0.25 -1.31,0.59 -2.2,0.82 -1.62,0.41 -3.64,0.22 -4.95,0.95 -0.16,0.09 -0.61,0.46 -0.78,0.6 -0.83,0.67 -2.32,2.25 -2.92,3.12 -1.37,2.02 -1.64,2.12 -3.65,2.12 -1.5,0 -2.59,-0.19 -3.98,-0.28 -2.56,-0.17 -3.22,0.06 -5.59,-0.86 -0.27,-0.11 -0.51,-0.21 -0.79,-0.31 -0.75,-0.25 -1.29,-0.75 -1.87,-1.29 -2.18,-2.03 -2.02,-0.12 -3.1,-1.3l-0.25 -0.31c-0.77,-0.95 -1.22,-1.07 -2.15,-1.69l-1.49 -0.85c-0.65,1.35 -0.47,2.41 -2.44,4.01 -0.95,0.77 -2.01,1.38 -3.17,1.77 -1.94,0.65 -1.04,0.14 -1.85,2.54 -0.48,1.41 -1.02,3.02 -1.31,4.46 -0.27,1.35 0.34,2.01 0.89,3.06l2.89 5.63c0.21,0.48 0.29,0.55 0.52,0.99 0.67,1.31 1.25,2.4 1.94,3.69 1.34,2.49 2.54,5.08 4.11,7.42l1.13 1.75c1.77,2.41 1.42,1.45 5.08,-0.36 0.39,-0.2 0.56,-0.32 0.87,-0.5l2.67 -1.45c2.76,-1.37 6.01,-3.33 8.88,-4.85l3.55 -1.94c1.91,-0.98 2.37,-3.23 3.06,-5.18 0.27,-0.76 0.44,-1.31 0.68,-2.07 0.15,-0.46 0.79,-1.6 0.79,-1.95 0,-0.48 -0.59,-0.77 -0.85,-1.08 -2.34,-2.75 -2.43,-7.01 0.12,-9.67 0.94,-0.98 2.78,-2.16 4.29,-2.16 2.23,0 3.87,0.21 5.55,1.73 2.41,2.18 3.01,5.38 1.73,8.3 -0.16,0.37 -0.33,0.73 -0.59,1.06l-0.57 0.66c-1.52,1.81 -4.24,2.81 -6.66,2.25 -2.12,-0.49 -1.35,-0.36 -2.77,3.83l-0.72 2.16c-0.27,0.76 -0.57,1.4 -0.88,2 -0.53,1.01 -0.55,0.86 -1.54,1.35 -0.66,0.32 -1.16,0.65 -1.88,1.01 -2.53,1.26 -4.94,2.77 -7.45,4.08l-6.54 3.48c-0.18,0.1 -0.23,0.14 -0.43,0.26l-0.26 0.15c-0.11,0.06 -0.14,0.08 -0.27,0.14 -0.26,0.14 -3.76,1.88 -3.76,2.14 0,0.81 1.6,3.43 2.13,4.47 0.14,0.28 0.19,0.4 0.32,0.64l2.5 5.05c1.08,-0.25 7.39,-3.98 9,-4.87l2.49 -1.35c0.61,-0.37 1.14,-0.57 1.7,-0.91 0.55,-0.34 1.03,-0.54 1.6,-0.87l19.73 -10.88c0.35,-0.19 0.47,-0.21 0.83,-0.41l2.49 -1.35c3.21,-1.92 6.64,-3.46 9.83,-5.41l3.35 -1.87c2.77,-1.57 1.16,-0.04 1.16,-3.65 0,-1.53 0.53,-2.67 1.26,-3.82l1.22 -1.39c0.11,-0.1 0.31,-0.26 0.46,-0.36l1.11 -0.68c2.69,-1.32 6.55,-0.57 8.4,1.76 0.02,0.02 0.04,0.06 0.06,0.08 1.24,1.55 1.63,2.98 1.63,5.09 0,1.25 -0.37,2.22 -0.94,3.17 -1.25,2.08 -3.62,3.33 -6.04,3.38 -3.15,0.07 -5.62,-2.57 -5.65,-2.57 -0.47,0 -0.56,0.15 -0.88,0.35l-2.41 1.3c-2.24,1.11 -4.38,2.42 -6.59,3.57 -0.33,0.17 -0.44,0.27 -0.78,0.46 -0.32,0.18 -0.49,0.24 -0.81,0.43 -0.38,0.22 -0.4,0.22 -0.81,0.43l-12.34 6.74c-0.16,0.08 -0.29,0.12 -0.38,0.17 -0.4,0.19 -0.09,0.03 -0.44,0.25l-4.42 2.44c-0.17,0.09 -0.3,0.14 -0.46,0.22l-4.91 2.64c-0.38,0.19 -0.51,0.32 -0.87,0.5l-6.57 3.59c-1.15,0.6 -2.19,1.18 -3.31,1.76 -0.33,0.17 -0.45,0.28 -0.79,0.45l-2.48 1.36c-0.76,0.4 -2.5,1.54 -3.32,1.76 0.04,0.47 0.2,0.73 0.38,1.13l0.55 1.1c0.14,0.25 0.24,0.45 0.39,0.71l4.02 7.79c0.04,0.08 0.17,0.33 0.18,0.37 0.09,0.23 0.08,0.04 0.11,0.44 1.05,-0.02 3.6,-1.72 4.71,-2.16 2.85,-1.11 2.46,-2.01 6.28,-1.82l4.94 0.28c0,-1.57 1.45,-3.6 2.41,-4.32 2.21,-1.65 5.03,-2.27 7.57,-1 0.2,0.1 0.35,0.16 0.54,0.28l0.72 0.52c0.02,0.02 0.06,0.04 0.08,0.06l0.66 0.57c0.56,0.56 1.11,1.3 1.42,2.01 1.16,2.71 0.6,5.93 -1.49,8.01 -1.57,1.57 -4.23,2.56 -6.49,1.89 -0.39,-0.12 -0.87,-0.25 -1.25,-0.4 -1.07,-0.42 -1.96,-1.18 -2.66,-2.01l-0.86 -1.2c-0.4,-0.85 -0.58,-1.76 -0.79,-2.65 -1.93,-0.45 -4.03,-0.41 -6.04,-0.41 -0.56,0 -0.9,0.19 -1.46,0.33 -1.13,0.28 -2.82,1.26 -3.94,1.82 -1.29,0.64 -2.82,1.2 -3.88,2.16 -1.16,1.04 -0.33,1.72 1.07,4.31l4.02 7.37c0.27,0.53 0.42,0.85 0.7,1.36l3.63 6.67c1.37,2.78 1.52,2.27 3.02,1.92 0.41,0.6 1.09,1.22 1.76,1.54 1.46,0.7 2.56,-0.25 3.23,-1.62 0.37,-0.76 0.8,-2.41 1.32,-2.8 0.39,0.29 0.41,0.55 0.57,1.08 0.19,0.61 0.14,0.8 0.27,1.51 0.11,0.59 0.37,0.52 0.52,1.13 0.13,0.52 0.17,1 0.29,1.5 0.26,-0.07 1.52,-1.09 2.39,-1.45 1.74,-0.73 3.72,-0.86 5.59,-0.49l1.49 0.57c0.49,0.22 0.84,0.46 1.27,0.78l0.82 0.68c0.57,0.29 0.73,-0.28 0.66,-1.04 -0.09,-0.95 -0.24,-1.81 0.26,-2.77 0.29,-0.55 0.37,-0.46 0.8,-0.85 0.61,-0.56 1.11,-1.1 1.82,-1.47 0,-2.01 -0.06,-3.22 1.14,-4.63 0.7,-0.81 1.32,-1.33 1.46,-2.53 0.11,-0.95 -0.14,-0.85 0.24,-1.68 0.52,-1.16 -0.09,-2.13 -0.09,-3.24 0,-1.09 1.36,-1.51 2.47,-1.51 0.53,-2.28 0.81,-1.25 2.28,-1.7l0.27 -0.14c0.6,-0.36 0.89,-0.76 1.28,-1.33 0.35,-0.51 0.82,-0.8 1.38,-1.09 -0.12,-1.46 -0.69,-1.08 0.36,-2.66 1.03,-1.54 0.6,-4.12 0.6,-5.99 0.71,-0.38 2.03,-1.31 2.72,-1.4 0.52,-0.07 0.45,0.04 0.99,-0.1 1.12,-0.28 0.82,-0.61 1.04,-1.72 0.07,-0.33 0.16,-0.78 0.26,-1.11 0.12,-0.41 0.35,-0.69 0.35,-1.16 0,-0.83 -0.55,-0.73 -0.55,-1.24 0,-0.55 0.18,-0.43 0.26,-0.98 0.27,-1.99 -0.33,-1.3 1.56,-2.42 0.54,-0.32 0.66,-0.77 0.94,-1.26 0.01,-0.01 0.11,-0.17 0.16,-0.25 0.41,-0.67 0.67,-1.04 0.66,-2.09 -0.01,-0.4 -0.04,-0.81 0.06,-1.18 0.1,-0.39 0.28,-0.56 0.34,-1.03 0.16,-1.36 -0.32,-1.15 0.47,-2.14 0.58,-0.74 0.21,-1.04 0.8,-1.81 0.57,-0.75 0.67,-0.77 0.67,-2.08l0.54 -0.29c0.03,-0.02 0.06,-0.04 0.09,-0.05 1.25,-0.73 1.43,-1.87 2.29,-2.92 0.27,-0.33 0.69,-0.97 0.79,-1.41 1.21,0 1.9,1.33 3.74,-0.52 0.73,-0.73 1.77,-1.15 2.65,-1.74 1.73,-1.17 3.47,-0.65 2,-3.53 -0.24,-0.47 -0.08,-1.17 0.06,-1.82 0.11,-0.52 0.61,-1.49 0.61,-1.72 0,-0.55 -0.28,-0.69 -0.28,-1.24 0,-0.82 0.48,-1.44 0.55,-2.33 -0.36,-0.19 -1.11,-0.56 -1.38,-0.81 -1.7,-1.58 -0.08,-1.79 -4.93,-1.79 -0.05,-0.6 -0.24,-0.66 -0.27,-1.24l-0.05 -1.32c-0.08,-0.45 -0.05,-0.97 -0.13,-1.53 -0.19,-1.37 -0.69,-2.74 -0.79,-4.15 -0.13,-1.8 -1.06,-3.14 -2.08,-4.51 -0.26,-0.34 -0.41,-0.68 -0.65,-1 -0.15,-0.2 -0.21,-0.23 -0.38,-0.45 -1.29,-1.7 -1.33,-1.91 -2.21,-3.56l-0.52 -0.72c-0.84,-1 -0.95,-0.74 -2.55,-0.75 -0.5,-0 -1.12,-0.09 -1.59,0.05 -1.33,0.4 -1.58,2.15 -2.49,2.45 -1.7,0.55 -3.48,-0.45 -4.8,1.79 -0.68,1.15 -1.64,1.61 -2.77,2.17 -0.85,0.42 -1.14,2.73 -2.21,2.73z"/>
   <path class="fil0" d="M64.11 181.07c0,1.16 0.15,2.11 0.02,3.18 -0.05,0.4 -0.02,0.81 -0.02,1.22 0.95,0 1.47,-0.34 3.57,-0.28 0.72,0.02 0.94,0.15 1.78,0.15 3.24,-0.01 2.56,-0.28 3.45,-0.36 0.43,-0.04 1.12,0.08 1.81,-0.02 0.57,-0.08 1.46,-0.12 1.91,-0.16 0.43,-0.04 0.55,0.03 0.85,0.06l1.46 -0.07c3.25,0 4,0.89 5.08,0.96 3.12,0.2 3.49,1.09 5.73,2.92 0.25,0.2 0.37,0.28 0.62,0.48l0.5 0.46c0.52,0.54 1.68,1.72 2.03,2.37 0.4,0.76 1.6,2.23 1.73,2.53 0.16,0.36 0.06,0.32 0.26,0.7 0.64,1.19 0.6,0.73 1.05,2.24 0.23,0.77 0.32,0.9 1.03,1.17 0.44,0.17 1.13,0.51 1.46,0.73 -0.19,0.72 -0.55,0.29 -0.55,0.69 0,0.56 0.21,0.44 0.27,1.24 0.11,1.32 0.75,2.34 1.17,3.63 0.14,0.44 0.2,0.83 0.32,1.19 0.47,1.4 0.8,2.11 1.61,3.33 0.23,0.35 0.36,0.62 0.58,0.93 0.1,0.14 0.23,0.29 0.37,0.45l0.19 0.22c0.6,0.71 1.24,1.2 1.92,1.78 1.29,1.11 2.67,2.05 4.54,2.05 0.64,0 0.75,-0.12 1.29,-0.22 0.76,-0.14 1.25,-0.04 1.95,-0.25 0.69,-0.21 1.39,-0.16 2.2,-0.27 0.45,-0.07 0.9,-0.18 1.3,-0.21 1.73,-0.13 1.08,0.01 2.73,-0.43 0.48,-0.13 0.87,-0.13 1.52,-0.13 0.18,-0.34 0.25,-0.63 0.41,-0.96l1.51 0c0.05,0.58 0.16,0.45 0.28,0.96 1.02,-0.09 1.57,-0.53 2.55,-0.74 0.85,-0.18 2.39,-0.15 2.96,-0.33 5.38,-1.74 7.89,-0.86 8.66,-1.08 0.45,-0.13 0.69,-0.3 1,-0.66 0.25,-0.29 0.2,0.2 0.2,-0.35 0,-2.94 -0.48,-2.28 -0.55,-3.16 0.6,0.01 0.54,0.04 0.87,0.37 0.25,0.25 0.36,0.39 0.62,0.62 0.02,0.02 0.05,0.05 0.07,0.07 0.51,0.45 1,0.6 1.74,0.6 0.02,-0.25 0.08,-0.56 0.19,-0.78 0.23,-0.48 0.86,-0.6 1.07,-0.99l0.93 -2.23c0.82,-2.22 1.94,-0.98 1.94,-4.38 0,-1.58 0.82,-2.78 0.82,-3.43 0,-0.64 -0.55,-0.98 -0.75,-1.73 -0.11,-0.39 0.02,-1.81 0.15,-2.16 0.2,-0.53 0.85,-0.84 1.34,-1.13 0.97,-0.56 0.62,-0.67 1.21,-1.4l2.24 -2.56c0.02,-0.02 0.05,-0.05 0.07,-0.07l2.45 -2.62 -10.43 -17.58c-1.09,-1.8 -2.33,-3.73 -3.32,-5.6l-1.49 -2.49c-0.81,0.19 -6.42,3.25 -7.86,3.94 -0.36,0.17 -0.25,0.17 -0.6,0.36 -0.27,0.14 -0.39,0.17 -0.66,0.3 -1.79,0.88 -1.19,1.08 -0.39,3.13 0.3,0.76 0.54,1.43 0.81,2.21l1.45 3.9c0.16,0.37 0.25,0.21 0.25,0.58 0,2.46 -0.04,2.93 -0.49,5.27 -0.47,2.45 -1.51,2.9 -0.22,3.4 0.91,0.35 1.74,0.98 2.3,1.81 1.16,1.71 1.18,4.55 0.2,6.4 -0.48,0.92 -1.15,1.54 -1.94,2.18 -0.46,0.37 -1.18,0.8 -1.78,0.97 -1.96,0.57 -4.44,-0.03 -5.84,-1.42l-0.34 -0.34c-0.02,-0.02 -0.05,-0.05 -0.07,-0.07 -1.83,-1.84 -2.03,-5.14 -0.65,-7.27 0.02,-0.03 0.04,-0.06 0.06,-0.08 0.02,-0.02 0.04,-0.06 0.06,-0.08l0.79 -0.99c1.01,-0.99 2.47,-1.77 4.36,-1.82 0.24,-1.05 0.64,-2.16 0.95,-3.17 1.17,-3.94 0.73,-4.2 -0.34,-7.04 -0.44,-1.16 -1.36,-3.93 -2.5,-4.51 -0.07,-0.03 -0.19,-0.09 -0.29,-0.13l-0.43 -0.12c-0.98,0 -7.76,3.09 -8.64,3.98 -1.27,1.29 -1.65,5.34 -1.65,7.13 0.74,0.39 1.36,0.75 1.98,1.32l0.14 0.13c3.73,3.72 1.12,10.35 -4.59,10.35 -0.84,0 -1.65,-0.2 -2.27,-0.48 -1.24,-0.56 -2.24,-1.41 -2.92,-2.56 -0.7,-1.18 -0.71,-2.63 -0.71,-3.96 0,-1.12 0.74,-2.31 1.41,-3.12l0.84 -0.8c0.56,-0.48 1.22,-0.87 1.97,-1.06 2.24,-0.58 2.07,0.51 2.34,-2.19 0.13,-1.27 0.31,-2.62 0.8,-3.86 0.5,-1.27 0.77,-1.97 1.74,-2.79 0.87,-0.74 1.94,-1.23 3.01,-1.66 2.22,-0.88 4.31,-1.81 6.41,-2.92l-6 -9.51c-0.24,-0.33 -0.77,-1.12 -0.86,-1.47 -1,0.02 -5.32,2.64 -6.59,3.29l-3.25 1.69c-0.59,0.3 -1.02,0.56 -1.6,0.87 -0.65,0.35 -1.05,0.56 -1.71,0.9l-2.42 1.29c-0.43,0.26 -0.32,0.21 -0.81,0.43 -0.65,0.28 -1.01,0.57 -1.61,0.86 -0.62,0.31 -1.06,0.6 -1.69,0.92 -0.63,0.32 -1.06,0.55 -1.61,0.86l-24.45 13.02c-0.54,0.33 -1.03,0.59 -1.6,0.87 -1.3,0.62 -3.82,2.29 -4.96,2.59z"/>
   <path class="fil0" d="M75.5 99.53l0 5.63c0,0.72 0.16,0.47 0.05,1.14 -0.18,1.1 -0.16,0.24 -0.37,1 -0.48,1.72 1.66,0.96 -0.25,3.33 -0.46,0.57 -0.87,2.55 -0.96,3.43 -0.27,2.67 -1.13,1.16 1.29,3.56 1.29,1.27 0.92,0.22 1.43,2.14 0.15,0.57 0.38,0.66 0.45,1.2 0.07,0.51 -0.02,1.24 0.01,1.78 0.07,1.41 1.1,1.21 1.1,3.01 0,0.53 -0.61,1.59 -0.69,2.47 -0.27,0 -0.57,-0.01 -0.83,-0.01l-1.18 0.46c-0.02,0.03 -0.2,0.37 -0.24,0.44 -1.02,1.86 0.31,2.28 0.62,2.95 0.29,0.6 -0.41,1.03 -0.62,1.59 -0.14,0.36 -0.15,0.6 -0.28,0.96 -0.14,0.4 -0.25,0.49 -0.43,0.81 -0.44,0.76 -0.32,0.92 -1.41,1.06 -2.89,0.36 -1.2,1.46 -1.97,2.7 -0.17,0.27 -0.37,0.39 -0.6,0.64l-0.97 1.5c-0.2,0.33 -0.3,0.6 -0.47,0.91 0.25,0.12 0.77,0.07 1.35,0.15 2.38,0.34 4.23,2.04 5.24,4.1 0.28,0.57 0.56,1.49 0.6,2.21 0.02,0.39 -0.27,0.27 0.14,0.61 0.41,0.34 3.82,0.6 4.82,0.67 1,0.06 4.21,-0.01 4.98,-0.22 0.82,-0.23 11.25,-5.92 12.32,-6.49l7.32 -3.94c2.55,-1.48 3.13,-0.87 -0.31,-6.64 -1.17,-1.97 -1.6,-2.45 -4.12,-3.16 -0.74,-0.21 -1.17,-0.39 -1.92,-0.55 -0.75,-0.16 -1.35,-0.46 -2,-0.47 -0.12,0.46 -0.4,0.79 -0.65,1.14l-0.65 0.73c-1.14,1.14 -2.4,1.68 -3.96,1.94 -1.46,0.24 -1.34,0.08 -2.7,-0.1 -0.97,-0.13 -1.9,-0.63 -2.62,-1.23l-0.37 -0.32c-0.68,-0.61 -1.28,-1.36 -1.67,-2.17 -1.43,-2.98 -0.85,-6.07 1.51,-8.35 2.18,-2.11 6.06,-2.49 8.58,-0.78 0.98,0.66 1.31,0.92 2,1.85 1.71,2.31 1.26,3.85 1.21,5.79 0.28,0.14 0.67,0.17 0.98,0.26 0.37,0.1 0.7,0.2 1.08,0.29 3.5,0.84 4.53,1.24 6.61,4.23 0.4,0.57 0.62,1.12 1.02,1.72 0.76,1.15 1.34,2.3 1.98,3.51 0.78,-0.07 4.91,-2.35 5.95,-2.84 1.54,-0.72 4.71,-2.63 5.99,-2.93 -0.02,-0.89 -1.12,-2.45 -1.57,-3.24l-1.75 -3.2c-0.29,-0.53 -0.53,-1.01 -0.8,-1.53l-8.67 -15.76c-0.29,-0.51 -0.55,-1.01 -0.87,-1.6 -0.15,-0.29 -0.23,-0.42 -0.39,-0.71l-0.65 -1.13c-0.11,-0.19 -0.12,-0.24 -0.22,-0.46 -0.19,-0.41 -0.26,-0.48 -0.44,-0.79 -0.32,-0.55 -0.53,-1.02 -0.88,-1.6l-0.87 -1.6c-0.31,-0.56 -0.51,-0.97 -0.83,-1.51l-3.47 -6.28c-0.31,-0.54 -0.52,-1.06 -0.86,-1.62l-1.75 -3.19c-0.32,-0.55 -0.53,-1.02 -0.88,-1.6l-1.94 -3.55c-0.23,-0.46 -0.5,-0.77 -0.62,-1.3 -2.79,0 -4.77,0.1 -7.36,0.88 -0.62,0.19 -0.6,0.36 -1.07,0.71 -0.39,0.29 -0.7,0.32 -1.07,0.71l-1.41 1.47c-0.02,0.02 -0.05,0.05 -0.07,0.07 -0.02,0.02 -0.05,0.05 -0.07,0.07 -1.36,1.21 -1.3,0.58 -1.29,2.69 0.01,1.32 -0.19,3.24 -0.53,4.14 -0.3,0.77 -1.31,2.31 -1.84,2.96l-2.27 2.39c-0.7,0.8 -1.94,1.47 -1.94,2.86z"/>
   <path class="fil0" d="M75.91 151.83c-0.35,1.5 -2.08,3.2 -3.5,3.91 -0.81,0.41 -1.14,0.41 -2.03,0.59 -1.9,0.38 -4.03,-0.25 -5.49,-1.45 -0.96,-0.79 -0.89,-0.97 -1.34,-1.27 0,0.91 0.26,1.58 -0.01,2.32 -0.79,2.14 -0.4,0.76 -0.4,2.07 0,0.65 -0.25,0.32 0.05,1.04 0.62,1.5 0.41,1.16 -0.05,3.07 -0.66,2.76 -0.31,2.27 -0.05,3.9 0.12,0.72 -0.07,1.53 0.08,2.25 0.11,0.5 0.63,0.96 0.88,1.47 0.44,0.9 -0.47,0.73 -0.04,3.88 0.18,1.3 -0.18,0.77 -0.18,2.23l0.08 1.54c-0.06,2.35 0.14,1.94 0.88,1.49 2.04,-1.25 7.87,-4.01 10.23,-5.43 0.58,-0.35 0.99,-0.55 1.61,-0.86 0.67,-0.33 1.03,-0.59 1.69,-0.92 0.66,-0.33 1.08,-0.61 1.69,-0.92 0.28,-0.14 0.53,-0.29 0.81,-0.43 0.35,-0.18 0.55,-0.27 0.9,-0.47l10.12 -5.39c0.58,-0.35 1.08,-0.58 1.71,-0.89l22.01 -11.76c-0.06,-0.66 -0.42,-1.07 -0.68,-1.52l-4.77 -8.55c-0.28,-0.51 -0.57,-1.03 -0.87,-1.47l-20.68 10.89c-0.81,0.48 -2.6,1.19 -3.51,1.25l-3.98 -0.16c-0.46,-0.06 -0.81,-0.04 -1.26,-0.11 -1.44,-0.23 -2.29,-0.34 -3.92,-0.34z"/>
   <path class="fil0" d="M96.78 80.17l11.35 20.91c0.19,0.34 0.29,0.45 0.46,0.78l4.21 7.73c0.32,0.56 0.58,1.08 0.87,1.61l10.16 18.67c0.75,-0.06 0.93,-0.29 1.47,-0.59l8.19 -4.44c0.52,-0.28 0.98,-0.47 1.47,-0.73 -0.07,-0.78 -0.98,-2.08 -1.4,-2.85l-8.42 -15.19c-0.36,-0.61 -2.25,-3.75 -2.25,-4.34 0,-1.76 0.06,-1.03 0.4,-2.76 0.34,-1.75 1.39,-4.44 1.39,-6.03 -1.02,-0.02 -1.5,-0.66 -2.23,-0.93 -0.39,-0.15 -0.81,-0.16 -1.25,-0.26 -0.53,-0.12 -0.19,-0.1 -0.58,-0.08 -1,0.04 -1.7,0.01 -2.53,-1.34 -3.12,-5.07 -1.96,-4.23 -6.71,-7.84 -1.32,-1 -1.52,-0.33 -2.45,-0.21 -0.82,0.1 -0.95,-0.52 -2.23,-0.88 -2.03,-0.57 -2.19,-0.99 -3.41,-1.4 -0.45,-0.15 -0.93,-0.1 -1.33,-0.32 -0.58,-0.32 0.13,-0.07 -0.48,-0.35 -0.85,-0.39 -3.29,0.04 -4.18,0.38 -0.34,0.13 -0.5,0.04 -0.5,0.46z"/>
   <path class="fil0" d="M137.82 158.42c0.02,0.8 1.12,2.2 1.69,3.25l10.33 17.4c0.36,0.62 2.67,4.37 2.8,4.88 0.51,-0.04 0.97,-0.2 1.41,-0.37 1.84,-0.7 1.16,0.15 1.77,-1.25 0.13,-0.3 0.2,-0.43 0.29,-0.81 0.18,-0.77 -0.05,-1.26 0.53,-1.8 0.86,-0.81 1.14,0.57 2.73,-1.8 -0.24,-0.36 -0.34,-0.57 -0.55,-0.96 0.19,-0.12 0.27,-0.16 0.44,-0.25l1.62 -0.85 -4.45 -8.45c-0.21,-0.35 -0.2,-0.35 -0.38,-0.72l-4.13 -7.81c-0.23,-0.42 -2.84,-5.24 -2.98,-5.81 -1.05,0 -3.71,1.73 -4.88,2.25 -0.32,0.14 -0.49,0.21 -0.74,0.36 -0.27,0.16 -5,2.7 -5.5,2.74z"/>
   <path class="fil1" d="M188.59 34.05c0.26,0.5 2.26,1.57 2.77,1.66 1.38,-1.47 3.53,-4.29 4.79,-5.52l0.14 9.14c1.09,-0.23 6.56,-4.18 7.68,-4.54 -0.09,0.71 -1.35,4 -1.73,5.2 -0.16,0.5 -0.5,1.19 -0.53,1.72 0.52,0.39 2.43,1.49 3.04,1.61 0.69,-2.52 1.71,-5.14 2.53,-7.75 0.46,-1.46 2.47,-6.8 2.52,-7.98 -0.7,0.19 -6.06,3.63 -7.52,4.5 -0.71,0.42 -1.83,1.29 -2.61,1.5 -0,-1.25 -0.09,-11.64 -0.22,-11.87 -0.5,0.18 -1.05,1.04 -1.42,1.46l-6.7 7.71c-0.65,0.79 -2.38,2.51 -2.75,3.18z"/>
   <path class="fil1" d="M186.43 23.89c-1.64,7.21 -9.57,4.91 -8.53,-0.72 0.42,-2.25 2.17,-4.48 4.67,-4.45 2.56,0.02 4.44,2.61 3.86,5.17zm-5.59 -8.52c-4.7,1.08 -7.33,5.38 -6.69,9.64 1.13,7.51 10.29,9.25 14.38,3.6 1.09,-1.5 2.06,-4.07 1.69,-6.47 -0.36,-2.33 -1.49,-4.03 -2.98,-5.24 -1.45,-1.18 -3.98,-2.09 -6.39,-1.53z"/>
   <path class="fil1" d="M84.26 24.51c2.56,-0.59 4.73,1.93 5.29,3.73 0.84,2.67 -0.49,5.26 -2.99,5.72 -5.05,0.93 -8.45,-8.03 -2.29,-9.45zm-0.87 -3.36c-4.75,1.08 -7.05,5.65 -5.85,10.03 1.08,3.95 4.87,7.14 9.77,6.2 4.06,-0.78 7.29,-5.23 5.94,-9.97 -1.14,-4.01 -4.75,-7.42 -9.86,-6.26z"/>
   <path class="fil1" d="M25.11 84.15c-0.35,-1.65 1.3,-4.72 4.96,-4.28 2.17,0.26 4.48,2.18 4.67,4.56 0.44,5.31 -8.32,5.91 -9.63,-0.28zm4.2 -8.05c-1.59,0.27 -1.96,0.15 -3.33,0.81 -2.92,1.41 -4.6,4.5 -4.31,8.07 0.52,6.41 9.68,10.28 14.63,4.72 3.09,-3.48 2.42,-8.7 -0.96,-11.5 -1.12,-0.93 -4.03,-2.43 -6.03,-2.1z"/>
   <path class="fil1" d="M127.14 12.22c2.8,-0.86 4.84,1.33 5.29,3.47 1.46,6.97 -7.17,8.23 -8.18,2.42 -0.5,-2.87 0.56,-5.17 2.89,-5.89zm0.26 -3.61c-4.72,0.72 -7.42,4.33 -7.02,9.1 0.65,7.64 9.72,10.12 14.16,4.67 1.37,-1.69 1.96,-3.68 1.78,-6.46 -0.27,-4.15 -4.24,-8.03 -8.92,-7.31z"/>
   <path class="fil1" d="M28.31 195.1c0.05,0.53 2.65,5.09 3.13,5.84 0.71,-0.24 2.13,-1.06 2.71,-1.5 -0.34,-0.82 -1.09,-1.77 -1.34,-2.6l1.9 -1.12c1.36,0.63 2.44,3.24 1.95,5.13 -0.47,1.79 -1.94,3.09 -3.58,3.67 -2.29,0.79 -4.14,-0.21 -5.27,-1.44 -1.45,-1.58 -1.41,-3.47 -1.01,-5.7l-3.43 1.42c-0.69,2.78 1.43,6.67 3.86,8.29 7.44,4.96 17.75,-4.47 10.92,-12.7 -0.7,-0.84 -2.16,-2.39 -3.28,-2.9l-6.56 3.61z"/>
   <path class="fil1" d="M253.82 110.32l7.26 -2.27 -1.93 -6.31c-0.44,0.03 -2.61,0.69 -2.95,0.94l0.8 2.74c-0.55,0.36 -1.63,0.67 -2.22,0.73 -1.18,-1.22 -1.63,-3.65 -0.74,-5.44 2.23,-4.45 9.9,-3.65 9.72,2.53 -0.04,1.49 -0.53,1.82 -0.77,2.91l3.67 -0.68c0.17,-0.91 0.42,-1.53 0.39,-2.65 -0.04,-1.64 -0.57,-3.36 -1.37,-4.73 -0.51,-0.87 -0.82,-1.04 -1.38,-1.65 -5.44,-5.9 -18.22,0.33 -13.1,10.35 0.65,1.27 1.69,2.64 2.61,3.52z"/>
   <path class="fil1" d="M265.65 169.11c0.03,1.49 -0.87,3.14 -1.61,3.92 -1.98,2.1 -5.93,1.54 -7.23,-1.28 -0.55,-1.19 -0.55,-3.32 0.03,-4.55 0.71,-0.02 8,1.63 8.81,1.91zm4.07 -2.85l-15.32 -3.45c-0.7,2.86 -1.88,6.8 -1.06,9.52 2.23,7.41 12.92,8.37 15.36,-1.38 0.18,-0.72 0.37,-1.56 0.54,-2.34 0.15,-0.68 0.44,-1.59 0.48,-2.35z"/>
   <path class="fil1" d="M241.09 82.37c0.09,0.42 1.26,2.58 1.61,2.93l7.49 -3.96c0.1,1.04 -3.31,11.88 -3.31,13.31 0.42,-0.13 12.8,-6.62 14.44,-7.66 -0.17,-0.5 -1.3,-2.68 -1.56,-2.96 -0.74,0.21 -6.26,3.43 -7.61,3.96 -0.01,-0.79 0.59,-2.53 0.79,-3.33 0.3,-1.13 0.57,-2.04 0.87,-3.23 0.37,-1.48 1.64,-5.33 1.7,-6.65 -0.73,0.11 -6.19,3.17 -7.3,3.76 -1.11,0.59 -6.5,3.35 -7.11,3.83z"/>
   <path class="fil1" d="M243.81 193.42c0.55,0.4 1.21,0.7 1.81,1.07 0.55,0.33 1.26,0.72 1.83,1.05 0.82,0.46 3.08,1.57 3.62,2.14 -0.6,0.4 -11.23,3.53 -12.9,4.11 0.2,0.58 2.81,1.81 3.36,2.15 1.14,0.69 2.38,1.34 3.59,2.04 1.31,0.75 2.36,1.36 3.58,2.04 0.87,0.49 2.78,1.72 3.61,2.01l0.85 -1.34c0.26,-0.47 0.65,-1 0.78,-1.53 -0.65,-0.61 -2.85,-1.71 -3.7,-2.18 -0.64,-0.36 -1.22,-0.69 -1.84,-1.04l-1.63 -0.97c-0.16,-0.13 -0.12,-0.1 -0.2,-0.2 0.71,-0.36 2.41,-0.78 3.21,-1.02l9.04 -2.78c0.53,-0.17 0.46,-0.06 0.67,-0.45 -0.31,-0.3 -13.34,-7.76 -14.02,-7.99 -0.37,0.37 -1.52,2.27 -1.64,2.91z"/>
   <path class="fil1" d="M36.95 222.11c0.42,0.71 1.4,1.62 2.04,2.46 1.03,-0.32 5.34,-4.71 6.75,-5.51 0.21,2.71 -0.7,10.08 -0.48,13.64 0.62,-0.21 2.51,-1.99 3.15,-2.55 1.02,-0.9 2.12,-1.84 3.1,-2.67l6.16 -5.38c-0.52,-0.78 -1.49,-1.72 -2.06,-2.47 -1,0.28 -6.02,5.34 -6.67,5.43l0.55 -13.58c-0.77,0.16 -2.77,2.11 -3.31,2.59 -1.21,1.05 -8.9,7.54 -9.24,8.04z"/>
   <path class="fil1" d="M103.95 13.55l2.55 8.26c-1.18,-0.16 -11.5,-5.73 -12.4,-5.67 -0.06,0.57 0.85,3.1 1.1,3.84l3.36 10.63c0.05,0.15 0.12,0.42 0.16,0.51l0.26 0.48c0.58,-0.05 2.76,-0.76 3.13,-0.97 -0.14,-0.68 -0.42,-1.32 -0.61,-1.99 -0.36,-1.32 -1.75,-5.23 -1.86,-6.14 1.47,0.36 11.3,5.58 12.41,5.68 -0.24,-1.25 -0.79,-2.68 -1.2,-3.95l-3.65 -11.63 -3.25 0.95z"/>
   <path class="fil1" d="M154.7 256.53c2.74,-0.85 4.58,1.48 5.06,3.47 0.64,2.63 -0.68,5.02 -2.75,5.59 -5.26,1.45 -7.36,-7.51 -2.31,-9.07zm0.59 -3.42c-4.66,0.58 -7.49,4 -7.06,8.68 0.41,4.46 4.44,7.84 8.49,7.25 4.14,-0.6 7.23,-3.88 6.78,-8.63 -0.43,-4.54 -4.26,-7.78 -8.21,-7.29z"/>
   <path class="fil1" d="M16.43 176.19c-0.24,-1.8 -1.12,-3.68 1.19,-4.27 1.96,-0.5 3.04,1.59 3.1,3.11 -0.71,0.14 -1.41,0.38 -2.12,0.59 -0.67,0.2 -1.49,0.49 -2.16,0.57zm4.84 -5.87c-0.77,-0.34 -1.57,-1.92 -4.11,-1.7 -3.71,0.32 -4.56,3.74 -3.7,7.2 0.4,1.59 0.88,3.12 1.32,4.62l15.08 -4.36c-0.08,-0.91 -0.62,-2.54 -0.9,-3.39 -1.65,0.08 -4.34,1.47 -6,1.6 -0.25,-0.79 0.55,-1.36 1.43,-2.43 0.68,-0.82 1.2,-1.44 1.8,-2.18 0.3,-0.36 0.58,-0.67 0.89,-1.04 0.78,-0.93 0.18,-1.82 -0.39,-3.83 -0.06,-0.2 -0.05,-0.23 -0.14,-0.41 -0.23,-0.48 -0.06,-0.15 -0.21,-0.31 -1.16,1.21 -4.42,5.72 -5.08,6.24z"/>
   <path class="fil1" d="M105.91 264.94l0.65 0.26c0.28,0.08 0.48,0.1 0.76,0.16 0.56,0.13 1.1,0.32 1.67,0.25 0.4,-0.98 1.46,-7.26 1.92,-7.77l6.76 9.94c0.31,0.46 0.15,0.46 0.67,0.65 0.37,-1.11 3.42,-14.55 3.42,-15.18l-3.11 -0.7 -1.81 8c-0.35,-0.21 -4.75,-6.79 -5.51,-7.98 -0.35,-0.54 -1.49,-2.4 -1.93,-2.63 -0.44,0.51 -1.52,6.1 -1.82,7.39 -0.3,1.3 -1.65,6.75 -1.67,7.6z"/>
   <path class="fil1" d="M237.32 50.52c-0.53,-0.45 -0.67,-0.65 -1.11,-1.06 -0.33,-0.32 -0.83,-0.81 -1.2,-1.08 -0.55,0.28 -4.01,4.25 -4.9,5.07 -1.36,1.27 -3.43,4.54 -6.23,2.16 -0.97,-0.82 -1.36,-2.13 -0.73,-3.49 1.01,-2.16 6.7,-7 7.12,-8.19 -0.4,-0.53 -2.13,-2.21 -2.7,-2.36 -0.52,0.9 -3.99,4.15 -4.88,5.26 -0.69,0.86 -1.05,1.03 -1.65,1.79 -2.68,3.38 -2.54,6.48 0.39,9.32 2.96,2.87 6.67,2.23 9.37,-0.39l2.4 -2.55c0.38,-0.37 0.52,-0.51 0.87,-0.91 0.58,-0.67 3.12,-3.12 3.26,-3.57z"/>
   <path class="fil1" d="M270.64 161.39l0.38 -3.23c-2.52,-0.2 -5.02,-0.73 -7.59,-1.02 -2.5,-0.28 -5.07,-0.84 -4.76,-3.77 0.13,-1.15 0.71,-2.04 1.79,-2.43 2.09,-0.77 7.95,0.75 11.4,0.96l0.52 -3.6c-1.55,-0.06 -3.93,-0.48 -5.4,-0.71 -5.01,-0.8 -10.8,-1.67 -11.65,5.36 -0.93,7.76 7.67,7.34 12.69,8.13 0.85,0.14 1.9,0.34 2.62,0.32z"/>
   <path class="fil1" d="M27.83 180.11c0.23,1.23 1.96,4.59 2.21,5.76l-2.51 1.03c-1.21,0.24 -1.24,-3.11 -2.41,-4.55l-2.86 1.08 1.91 4.83c-0.57,0.27 -2.12,0.97 -2.76,1.05 -0.32,-0.68 -1.87,-5 -2.33,-5.5 -0.69,0.27 -2.28,0.74 -2.8,1.24 0.11,0.55 3.36,8.45 3.62,8.79 0.67,-0.13 14.29,-5.72 14.49,-5.91 -0.12,-0.99 -3.12,-7.37 -3.57,-8.99l-2.99 1.17z"/>
   <path class="fil1" d="M246.68 187.66c0.58,0.32 2.27,1.02 2.89,1.08 0.73,-0.79 1.53,-4.55 2.33,-5.6l2.87 1.06c-0.14,1.11 -1.41,3.65 -1.75,4.84l2.84 1.16c0.67,-0.94 1.35,-3.61 1.97,-4.82l2.63 0.99c-0.08,0.78 -0.74,2.21 -0.98,2.83 -0.25,0.66 -0.94,2.27 -1.01,2.86 0.45,0.3 2.24,1.02 2.92,1.08 0.44,-1.07 3.23,-8.23 3.33,-8.91l-14.66 -5.63c-0.51,1.35 -3.31,8.38 -3.38,9.07z"/>
   <path class="fil1" d="M48.23 68.15l-3.19 -2.47c0.49,4.97 -3.54,9.01 -7.88,5.88 -2.98,-2.15 -2.99,-5.86 -0.2,-7.82 1.11,-0.78 1.89,-0.72 2.8,-1.16l-2.49 -2.26c-1.23,-0.85 -3.83,1.99 -4.58,3.14 -2.11,3.19 -1.6,6.89 0.74,9.78 1.69,2.08 5.62,3.92 9.3,2.59 2.87,-1.04 5.4,-3.96 5.5,-7.67z"/>
   <path class="fil1" d="M170.26 27.19l1.08 -3.89c-1.55,0.42 -3.79,1.7 -6.38,0.21 -3.9,-2.25 -2.17,-9.02 2.23,-9.24 1.25,-0.06 2.3,0.35 3.1,0.9 0.42,0.29 0.69,0.57 1.02,0.91 0.18,0.19 0.28,0.29 0.45,0.51l0.57 0.62 1.18 -3.61c-2.24,-2.95 -8.4,-4.41 -12.44,0.18 -2.96,3.36 -2.94,9.54 1.81,12.64 2.44,1.59 4.84,1.37 7.38,0.77z"/>
   <path class="fil1" d="M56.21 53.47c-0.39,0.39 -1.19,1.22 -1.6,1.32l-1.78 -4.96 4.33 1.88c0.16,0.08 0.16,0.08 0.27,0.15 0.34,0.21 0.08,0.04 0.24,0.18 -0.23,0.42 -0.98,0.96 -1.46,1.44zm-2.43 8.92c0.5,-0.18 1.91,-1.62 2.65,-2.24 0.05,-0.64 -0.51,-2 -0.69,-2.49l4.67 -4.44c0.59,0.09 1.66,0.6 2.14,0.87 0.55,-0.19 2.61,-2.05 2.83,-2.6 -0.64,-0.42 -3.33,-1.38 -4.16,-1.67l-8.33 -3.16c-0.95,-0.37 -3.51,-1.48 -4.32,-1.52 0.26,1.43 0.86,2.93 1.27,4.3l2.64 8.62c0.39,1.38 1.01,2.99 1.31,4.35z"/>
   <path class="fil1" d="M14.85 150.04c0.44,-0.4 4.08,-2.19 4.78,-2.39l0.24 4.05c-0.58,-0.01 -4.58,-1.37 -5.02,-1.66zm-6.34 0.28c0.38,0.53 7.7,3.26 8.3,3.5 1.37,0.56 2.83,1.14 4.23,1.7 1.03,0.41 3.23,1.46 4.27,1.65l-0.27 -3.56 -2.36 -0.93c-0.14,-1.22 -0.13,-2.14 -0.24,-3.29 -0.08,-0.95 -0.27,-2.05 -0.17,-3.18 0.58,-0.37 1.41,-0.75 2.12,-1.16 -0.03,-1.09 -0.04,-2.91 -0.37,-3.78l-5.74 3.31c-1.73,1.09 -9.19,5.2 -9.77,5.74z"/>
   <path class="fil1" d="M215.04 40.22c0.46,-0.67 1.89,-2.67 2.54,-3.25 0.89,0.36 3,2.09 1.6,3.89 -1.17,1.51 -3.31,0.46 -4.14,-0.64zm-8.25 4.53c0.23,0.34 2.43,2.06 2.83,2.22 0.66,-0.54 3.04,-3.95 3.57,-4.37 1.13,0.53 2.53,2.34 5.46,2.11 3.29,-0.26 6.55,-4.91 2.12,-8.9 -1.43,-1.29 -2.84,-2.27 -4.28,-3.41 -0.58,0.47 -6.5,8.2 -7.29,9.19 -0.54,0.68 -2,2.38 -2.41,3.17z"/>
   <path class="fil1" d="M19.83 129.27c-0.42,-0.04 -4.3,-2.36 -4.59,-2.7 0.47,-0.28 4.35,-1.26 5.08,-1.38l-0.49 4.07zm-10.9 -3.8c0.27,0.54 9.89,6.92 11.18,7.76l2.86 1.95c0.19,0.13 0.34,0.24 0.5,0.34 0.62,0.35 0.43,0.15 0.73,-1.6 0.09,-0.51 0.22,-1.42 0.21,-1.84l-2.07 -1.24c0.1,-2.02 0.53,-4.28 0.81,-6.39 0.66,-0.36 1.75,-0.55 2.46,-0.81l0.5 -3.72 -17.18 5.54z"/>
   <path class="fil1" d="M22.29 117.58l3.96 0.52c0.3,-0.84 0.99,-1.72 1.46,-3.36 1.63,-5.69 -3.19,-8.46 -6.34,-7.03 -2.15,0.97 -4.02,4.07 -5.08,4.68 -1.57,0.89 -2.26,-0.94 -1.68,-2.36 0.64,-1.58 1.63,-2.21 2.02,-2.97 -0.7,-0.19 -2.82,-0.71 -3.45,-0.69 -1.25,1.6 -2.49,5 -1.31,7.36 0.54,1.09 1.24,1.8 2.62,2.17 3.19,0.86 4.83,-1.73 6.39,-3.2 0.51,-0.49 1.8,-2.2 3.05,-1.57 1.15,0.58 0.8,2.5 0.28,3.53 -0.83,1.65 -1.91,2.36 -1.91,2.91z"/>
   <path class="fil1" d="M231.29 230.49c0.19,0.45 2.08,2.28 2.48,2.46 1,0.13 7.27,-4.37 4.12,-8.51 -3.2,-4.21 -9.39,1.28 -10.82,-0.98 -1.11,-1.76 1.64,-3.47 2.84,-3.97 0.27,-0.11 0.62,-0.23 0.9,-0.33l0.89 -0.39c-0.81,-0.74 -2.24,-1.95 -3,-2.47 -1.69,0.39 -4.36,3.06 -4.96,4.69 -1.08,2.93 0.54,5.33 2.52,6.29 2.49,1.22 6.28,-1.08 7.94,-1.06 2.43,0.04 1.51,3.41 -2.9,4.25z"/>
   <path class="fil1" d="M25.32 105.07c1.1,0.2 2.91,0.96 3.94,0.93 0.5,-0.99 1.26,-1.79 1.77,-3.03 2.38,-5.77 -2.21,-8.62 -5.2,-7.83 -2.35,0.62 -4.62,3.54 -5.75,4.01 -1.7,0.71 -2.24,-1.06 -1.44,-2.54 0.6,-1.11 1.54,-1.79 2.38,-2.58l-3.31 -1.26c-1.46,1.35 -3.01,4.64 -2.32,7.02 0.71,2.45 3.5,3.83 6.33,2.37 1.35,-0.7 2.04,-1.57 3.02,-2.34l1.13 -0.79c1.96,-1.24 3.36,0.76 1.78,3.28 -1.35,2.15 -2.04,1.75 -2.33,2.74z"/>
   <path class="fil1" d="M258.98 118.93l-4.02 0.82c-0.24,3.1 -0.55,5.81 1.36,7.75 1.56,1.6 4.73,2.28 6.74,0.36 0.76,-0.73 1.28,-1.8 1.75,-2.92 0.63,-1.49 1.25,-4.69 3.07,-3.64 1.56,0.89 0.38,4.38 -0.12,5.33 0.62,0.14 2.66,-0.29 3.5,-0.36 1.96,-8.98 -5.09,-10.3 -7.69,-6.82 -1.06,1.42 -2.1,5.62 -3.49,6 -1.42,0.4 -2.05,-1.39 -2.05,-2.71 -0,-1.52 0.53,-2.67 0.96,-3.8z"/>
   <path class="fil1" d="M135.15 261.65c0,3.62 1.44,5.91 3.77,7.29 1.5,0.89 2.41,1.03 4.39,1.03 1.36,0 3.96,-0.85 4.16,-1.44l0.16 -3.7c-0.75,0.13 -2.08,2.19 -5.4,1.75 -1.99,-0.26 -3.41,-1.99 -3.53,-4.11 -0.14,-2.53 0.85,-4.13 2.59,-4.91 2.94,-1.31 5.05,1.1 5.79,1.38l0.28 -3.6c-3.25,-2.93 -12.21,-1.23 -12.21,6.31z"/>
   <path class="fil1" d="M125.66 264.06c0.04,-0.48 1.91,-4 2.28,-4.48 0.34,0.43 1.52,4.05 1.58,4.74 -0.77,0.05 -3.1,-0.11 -3.87,-0.27zm-5.86 4.33l3.34 0.23 1.19 -2.09 6.09 0.48c0.48,0.56 0.53,1.63 0.96,2.27l3.53 0.22c-0.12,-0.67 -5.83,-15.04 -6.22,-16 -0.65,0.35 -2.03,3.02 -2.36,3.63 -0.67,1.21 -1.5,2.56 -2.2,3.7 -0.68,1.11 -4.21,6.84 -4.32,7.55z"/>
   <path class="fil1" d="M139.72 24.3l3.63 0.01 0.18 -6.24 5.4 0.03 0.01 -3.02 -5.39 -0.18 -0.04 -3.15c1.89,-0.3 4.14,0.09 6.07,0.04l0.19 -3.11c-1.26,-0.09 -9.09,-0.31 -9.83,-0.12 -0.07,1.37 -0.01,2.58 0.01,3.94 0.01,0.82 -0.18,1.94 -0.16,3.84 0.02,1.9 -0.18,6.46 -0.08,7.96z"/>
   <path class="fil1" d="M165.43 263.04c0.18,0.88 0.46,1.54 0.71,2.42 0.43,1.48 0.19,1.3 2.02,1.3 7.87,0 7.89,-6.54 5.13,-8.59 -1.66,-1.23 -5.33,-1.69 -6.11,-2.4 -1.11,-1.02 0.05,-2.09 1.19,-2.3 1.19,-0.22 2.52,0.28 3.6,0.52 0.03,-0.91 -0.5,-2.3 -0.65,-3.27 -2.77,-0.44 -5.58,0.16 -6.96,1.91 -1.68,2.13 -0.67,4.87 1.19,6.01 1.99,1.22 5.66,1.39 6,2.92 0.3,1.32 -1.26,1.9 -2.36,2.04 -1.42,0.19 -2.5,-0.31 -3.75,-0.56z"/>
   <path class="fil1" d="M54.3 40.5c0.47,0.84 1.39,1.74 1.87,2.45l3.96 -3.04 7.69 9.77c0.74,-0.31 2.12,-1.58 2.91,-2.13 -0.41,-1.18 -7.56,-9.43 -7.54,-9.93 0.2,-0.44 3.2,-2.54 3.79,-3.16 -0.5,-0.85 -1.4,-1.75 -1.88,-2.48 -0.6,0.26 -7.07,5.4 -8.17,6.28 -0.56,0.45 -2.34,1.64 -2.63,2.24z"/>
   <path class="fil1" d="M232.65 210.99c0.55,0.72 9.36,6.49 10.03,7.28 -0.21,0.96 -2.32,2.99 -2.67,4.12l2.51 1.81 7.9 -11.15c-0.25,-0.37 -0.12,-0.21 -0.52,-0.49l-2 -1.34c-0.78,0.54 -2.11,2.98 -2.88,3.88 -0.6,-0.07 -4.3,-2.86 -5.17,-3.47 -0.98,-0.68 -4.43,-3.24 -5.12,-3.54 -0.37,0.28 -1.87,2.41 -2.08,2.9z"/>
   <path class="fil1" d="M237.59 55.74c0.31,0.63 2.35,2.97 2.99,3.95 -0.67,0.62 -1.47,1.21 -2.35,1.88l-7.38 5.84c0.19,0.52 0.66,0.98 1.04,1.47 0.45,0.58 0.62,1.03 1.2,1.34 0.93,-0.42 8.49,-6.78 9.75,-7.52 0.82,0.45 2.29,3.03 3.16,3.76 0.83,-0.31 1.59,-1.35 2.48,-1.77 -0.15,-0.64 -0.54,-0.91 -0.94,-1.43l-7.44 -9.42c-0.53,0.13 -2.24,1.56 -2.5,1.89z"/>
   <path class="fil1" d="M268.94 135.5l-12.55 0.14 0.06 3.71 12.59 -0.19 0.02 5.04 3.11 -0.04c0.26,-0.86 0.01,-6.08 -0.03,-6.88 -0.1,-2.25 -0.03,-4.64 -0.08,-6.91l-3.15 0.08 0.01 5.06z"/>
   <path class="fil0" d="M127.14 12.22c-2.34,0.72 -3.39,3.02 -2.89,5.89 1.01,5.81 9.64,4.55 8.18,-2.42 -0.45,-2.14 -2.49,-4.33 -5.29,-3.47z"/>
   <path class="fil0" d="M25.11 84.15c1.31,6.18 10.06,5.58 9.63,0.28 -0.2,-2.38 -2.5,-4.29 -4.67,-4.56 -3.66,-0.44 -5.31,2.63 -4.96,4.28z"/>
   <path class="fil0" d="M84.26 24.51c-6.16,1.42 -2.76,10.38 2.29,9.45 2.51,-0.46 3.83,-3.05 2.99,-5.72 -0.56,-1.8 -2.73,-4.32 -5.29,-3.73z"/>
   <path class="fil0" d="M186.43 23.89c0.58,-2.55 -1.3,-5.15 -3.86,-5.17 -2.5,-0.02 -4.26,2.2 -4.67,4.45 -1.04,5.63 6.89,7.93 8.53,0.72z"/>
   <path class="fil0" d="M154.7 256.53c-5.05,1.56 -2.95,10.52 2.31,9.07 2.08,-0.57 3.39,-2.97 2.75,-5.59 -0.49,-1.99 -2.33,-4.32 -5.06,-3.47z"/>
   <path class="fil1" d="M237.11 76.05c0.48,1.01 1.3,2 1.87,3.03 0.69,-0.16 11.51,-7.4 13.23,-8.46 -0.28,-0.92 -1.39,-2.14 -1.89,-3.13 -0.7,0.26 -6.59,4.18 -8.27,5.3 -1.06,0.7 -4.46,2.75 -4.94,3.26z"/>
   <path class="fil1" d="M31.73 214.7c0.16,0.54 1.55,2.36 2.02,3.02 1.43,-0.83 4.72,-3.31 6.41,-4.46 1.06,-0.72 2.13,-1.47 3.15,-2.19 0.75,-0.53 2.6,-1.95 3.29,-2.21 -0.14,-0.67 -1.54,-2.61 -2,-3.09 -0.74,0.15 -2.37,1.56 -3.24,2.13l-6.46 4.51c-0.91,0.67 -2.44,1.54 -3.18,2.29z"/>
   <path class="fil1" d="M67.98 30.22c0.29,0.85 2.51,3.82 3.15,4.91 0.32,0.54 0.72,1.15 1.06,1.68 0.81,1.27 1.3,1.99 2.12,3.23 0.66,1 1.65,2.39 2.13,3.37 0.57,-0.15 2.74,-1.58 3.1,-1.95 -0.2,-0.63 -8.17,-12.85 -8.56,-13.16 -0.89,0.45 -2.13,1.36 -2.99,1.92z"/>
   <path class="fil1" d="M38.96 56.29c0.16,0.31 1.06,1.02 1.43,1.33l10.4 8.92c0.33,-0.19 2.09,-2.23 2.37,-2.7 -0.42,-0.73 -10.25,-8.73 -11.71,-10.24 -0.43,0.14 -2.2,2.13 -2.49,2.69z"/>
   <path class="fil1" d="M10.89 164.73l15.5 -2.54c-0.02,-0.9 -0.28,-2.17 -0.42,-2.98 -0.17,-0.97 -0.06,-0.69 -2.28,-0.32l-12.71 2.11c-1.02,0.16 -0.72,0.53 -0.09,3.73z"/>
   <path class="fil1" d="M193.09 249.36l-4.71 -0c0.19,0.51 2.91,2.06 3.65,2.82 0.05,1.15 -1.22,3.38 -1.28,4.45 0.71,-0.17 2.7,-2.09 3.76,-2.59 1.06,0.38 2.75,2.1 3.8,2.62l-1.37 -4.46c0.45,-0.32 3.58,-2.42 3.72,-2.83l-4.64 -0.04 -1.55 -4.31 -1.39 4.35z"/>
   <path class="fil1" d="M205.6 241l-4.66 0.02c0.29,0.5 3.19,2.43 3.68,2.81 -0.02,1.14 -1.15,3.24 -1.31,4.48l3.82 -2.69c0.36,0.34 3.25,2.45 3.74,2.63l-1.36 -4.31c1.02,-0.99 3.35,-2.24 3.72,-2.89l-4.67 -0.04 -1.47 -4.47c-0.11,0.6 -1.22,3.79 -1.5,4.46z"/>
   <path class="fil1" d="M77.52 245.52l-4.63 0.03c0.51,0.58 1.16,0.92 1.79,1.39 0.65,0.48 1.31,0.94 1.88,1.39l-1.39 4.46c0.68,-0.42 3.36,-2.5 3.89,-2.65 0.95,0.57 2.78,2.23 3.72,2.6 -0.22,-1.29 -1.25,-3.26 -1.28,-4.42 0.35,-0.42 1.29,-1 1.81,-1.38 0.6,-0.44 1.3,-0.81 1.79,-1.38l-4.61 -0.05c-0.34,-0.94 -1.12,-3.86 -1.54,-4.43l-1.44 4.43z"/>
   <path class="fil1" d="M64.96 237.21l-4.67 0.01c1.21,0.91 2.5,1.96 3.7,2.71 -0.06,0.94 -1.07,3.55 -1.36,4.53 1.11,-0.47 2.54,-1.97 3.81,-2.66 1.17,0.55 2.42,1.99 3.76,2.6 -0.11,-1.44 -1.15,-3.01 -1.3,-4.48 0.68,-0.32 3.23,-2.22 3.7,-2.66l-4.65 -0.06 -1.1 -3.29c-0.08,-0.22 -0.1,-0.34 -0.16,-0.52l-0.26 -0.57 -1.48 4.39z"/>
   <path class="fil0" d="M265.65 169.11c-0.81,-0.28 -8.1,-1.92 -8.81,-1.91 -0.58,1.23 -0.58,3.36 -0.03,4.55 1.3,2.82 5.25,3.38 7.23,1.28 0.74,-0.78 1.64,-2.43 1.61,-3.92z"/>
   <path class="fil0" d="M132.07 135.11c0.17,-0.57 0.77,-1.79 1.14,-2.13l0.97 2.15c-0.92,-0.15 -0.43,-0.48 -1.15,-0.4 -1.15,0.14 0.2,0.34 -0.96,0.37zm-3.03 -2.5c0.2,0.87 1.39,2.78 1.77,3.59l1.11 2.18c0.35,-0.09 1.02,-0.5 1.38,-0.68l4.25 -2.2c-0.06,-0.7 -1.25,-2.72 -1.68,-3.54 -0.27,-0.52 -0.89,-1.44 -1.07,-2.22 -0.67,0.06 -2.2,1.09 -2.84,1.41l-2.92 1.47z"/>
   <path class="fil0" d="M141.28 149.77c-0.15,-0.52 -0.05,-0.24 -0.54,-0.58 -0.95,-0.67 -0.17,-1.57 0.89,-1.07 -0.17,0.53 0.19,0.21 -0.44,0.24 -0.4,0.03 -0.07,-0.23 -0.43,0.17 0.25,0.43 0.49,0.4 0.95,0.69l-0.06 0.94c-1.08,0.58 -1.15,0.08 -1.25,-0.11 0.35,-0.19 0.47,0.02 0.88,-0.27zm-4.55 -1.92l2.18 4.14c0.26,0.61 0.56,0.87 0.71,1.49 1.93,-0.93 3.97,-1.82 5.77,-3.02l-3.02 -5.63 -5.63 3.02z"/>
   <path class="fil0" d="M132.63 145.51c-0.52,1.08 -1.96,0.2 -1.92,-0.82 0.04,-1.15 0.99,-1.29 1.91,-0.99 -0.26,0.69 -0.14,0.22 -1.09,0.34 -0.41,0.63 -0.49,1.4 0.39,1.42 0.61,0.01 0.32,-0.2 0.71,0.04zm-5.24 -2.2c0.15,0.64 0.84,1.76 1.16,2.41 0.32,0.65 1.55,2.81 1.58,3.22 1.08,-0.03 4.53,-2.46 5.77,-2.75 -0.07,-0.85 -1.63,-3.35 -2.13,-4.33 -0.28,-0.55 -0.45,-0.99 -0.76,-1.44 -0.44,0.1 -1.01,0.41 -1.42,0.64l-4.21 2.24z"/>
   <path class="fil0" d="M65.75 148.95c0,1.49 1.41,3.43 3.16,3.43l0.82 0c1.64,0 3.02,-1.5 3.02,-3.57 0,-3.61 -5.1,-4.83 -6.64,-1.29 -0.15,0.35 -0.36,1 -0.36,1.43z"/>
   <path class="fil0" d="M163.08 98.7c0,3.46 4.04,4.52 6,2.57 2.17,-2.17 0.62,-6 -2.43,-6 -2.03,0 -3.57,1.79 -3.57,3.43z"/>
   <path class="fil0" d="M119.98 142.29c-0.55,-0.08 -0.38,-0.2 -0.38,-0.88 0,-0.49 -0.01,-0.98 0.03,-1.46 0.46,0.13 0.86,0.91 1.59,1.22 0,-0.42 -0.07,-0.81 0.14,-1.14 0.56,0.22 0.27,0.37 0.3,2.11 -0.91,-0.24 -0.67,-0.75 -1.49,-1.13 -0.07,0.49 0.04,0.95 -0.18,1.28zm-3.43 -2.54c0.09,0.37 0.12,0.39 0.28,0.68l2.6 4.95c0.79,-0.18 2.09,-1 2.84,-1.42 0.52,-0.29 0.94,-0.45 1.46,-0.74 0.2,-0.11 0.22,-0.13 0.35,-0.2 0.19,-0.09 0.18,-0.07 0.38,-0.17 0.46,-0.22 0.35,-0.12 0.6,-0.5l-2.88 -5.49c-0.61,0.14 -2.12,1.01 -2.86,1.39l-2.77 1.49z"/>
   <path class="fil0" d="M129.75 154.29c1.52,-0.83 2.26,1.48 1.09,2.1 -1.42,0.76 -2.45,-1.36 -1.09,-2.1zm-3.74 -0.4c0.04,0.52 2.08,4.26 2.51,5.04 0.16,0.27 0.24,0.49 0.37,0.73l5.63 -2.88c-0.05,-0.64 -0.35,-0.89 -0.62,-1.44l-1.86 -3.63c-0.13,-0.24 -0.26,-0.42 -0.4,-0.7l-5.63 2.88z"/>
   <path class="fil0" d="M169.94 147.02c0,0.7 -0.04,1.18 0.26,1.8 0.34,0.71 1.58,1.77 2.35,1.77 1.58,0 2.04,0.18 3.26,-1.13 1.15,-1.23 1.14,-3.16 -0.17,-4.58 -1.83,-1.98 -5.7,-0.84 -5.7,2.13z"/>
   <path class="fil0" d="M91.01 128.77c1.41,0 1.72,-0.01 2.65,-0.92 0.29,-0.29 0.49,-0.43 0.69,-0.82 0.66,-1.31 0.48,-2.9 -0.55,-3.93 -1.41,-1.4 -3.45,-1.4 -4.75,-0.14 -1.45,1.41 -1.38,3.78 0.21,5.09 0.02,0.02 0.05,0.04 0.08,0.06 0.45,0.36 0.97,0.65 1.68,0.65z"/>
   <path class="fil0" d="M203.58 108.31c0.87,0 2.02,-0.86 2.55,-1.7 0.68,-1.08 0.56,-3.24 -1.07,-4.45 -3.04,-2.26 -7.06,2.08 -4.49,4.9 0.81,0.89 1.52,1.25 3,1.25z"/>
   <path class="fil0" d="M107.35 183.95c0,0.3 0.22,1.04 0.33,1.32 0.87,2.21 3.99,2.9 5.6,1.03 0.97,-1.13 0.8,-1.4 0.8,-2.76 0,-1.67 -2,-3.5 -4.55,-2.63 -1.26,0.43 -2.17,2.1 -2.17,3.04z"/>
   <path class="fil0" d="M125.47 90.33c0.25,0 0.95,-0.21 1.2,-0.31 1.9,-0.72 2.09,-2.14 2.09,-3.67 0,-1.12 -1.6,-2.74 -2.75,-2.74 -1.34,0 -2.11,-0.05 -3.17,1.22l-0.56 0.96c-0.85,2.78 1.41,4.55 3.18,4.55z"/>
   <path class="fil0" d="M123 187.93c0,1.69 1.41,3.24 3.14,3.14 1.45,-0.09 2.34,-0.54 2.99,-1.82 0.27,-0.53 0.26,-1.57 0.24,-1.95 -0.02,-0.33 -0.07,-0.42 -0.16,-0.62 -0.88,-1.98 -3.32,-2.83 -5.27,-1.1 -0.51,0.45 -0.94,1.42 -0.94,2.36z"/>
   <path class="fil0" d="M16.43 176.19c0.67,-0.08 1.5,-0.37 2.16,-0.57 0.7,-0.21 1.41,-0.45 2.12,-0.59 -0.06,-1.51 -1.14,-3.6 -3.1,-3.11 -2.3,0.59 -1.43,2.47 -1.19,4.27z"/>
   <path class="fil0" d="M215.04 40.22c0.84,1.1 2.97,2.15 4.14,0.64 1.4,-1.81 -0.71,-3.54 -1.6,-3.89 -0.65,0.58 -2.09,2.58 -2.54,3.25z"/>
   <path class="fil0" d="M14.85 150.04c0.44,0.29 4.44,1.65 5.02,1.66l-0.24 -4.05c-0.69,0.2 -4.34,1.98 -4.78,2.39z"/>
   <path class="fil0" d="M20.32 125.19c-0.73,0.12 -4.61,1.1 -5.08,1.38 0.29,0.34 4.17,2.66 4.59,2.7l0.49 -4.07z"/>
   <path class="fil0" d="M54.61 54.79c0.42,-0.1 1.21,-0.93 1.6,-1.32 0.48,-0.48 1.23,-1.02 1.46,-1.44 -0.16,-0.15 0.1,0.03 -0.24,-0.18 -0.12,-0.07 -0.11,-0.07 -0.27,-0.15l-4.33 -1.88 1.78 4.96z"/>
   <path class="fil0" d="M125.66 264.06c0.76,0.16 3.09,0.32 3.87,0.27 -0.06,-0.7 -1.24,-4.31 -1.58,-4.74 -0.37,0.47 -2.24,3.99 -2.28,4.48z"/>
   <path class="fil1" d="M130.41 154.54c0.86,0.54 0.55,1.67 -0.26,1.54 -0.6,-0.1 -0.93,-1.4 0.26,-1.54zm-0.66 -0.26c-1.36,0.74 -0.33,2.86 1.09,2.1 1.17,-0.62 0.43,-2.93 -1.09,-2.1z"/>
   <path class="fil1" d="M119.98 142.29c0.22,-0.33 0.11,-0.79 0.18,-1.28 0.82,0.38 0.58,0.88 1.49,1.13 -0.03,-1.74 0.26,-1.89 -0.3,-2.11 -0.2,0.33 -0.13,0.72 -0.14,1.14 -0.73,-0.31 -1.13,-1.1 -1.59,-1.22 -0.03,0.49 -0.02,0.97 -0.03,1.46 -0.01,0.68 -0.17,0.81 0.38,0.88z"/>
   <path class="fil1" d="M132.63 145.51c-0.39,-0.25 -0.1,-0.03 -0.71,-0.04 -0.88,-0.02 -0.79,-0.79 -0.39,-1.42 0.95,-0.12 0.83,0.35 1.09,-0.34 -0.92,-0.3 -1.88,-0.16 -1.91,0.99 -0.03,1.02 1.41,1.9 1.92,0.82z"/>
   <path class="fil1" d="M132.07 135.11c1.15,-0.03 -0.19,-0.23 0.96,-0.37 0.73,-0.09 0.23,0.25 1.15,0.4l-0.97 -2.15c-0.37,0.34 -0.97,1.56 -1.14,2.13z"/>
   <path class="fil1" d="M141.28 149.77c-0.42,0.29 -0.53,0.08 -0.88,0.27 0.1,0.19 0.17,0.69 1.25,0.11l0.06 -0.94c-0.46,-0.29 -0.7,-0.25 -0.95,-0.69 0.36,-0.4 0.04,-0.15 0.43,-0.17 0.63,-0.04 0.27,0.29 0.44,-0.24 -1.07,-0.5 -1.84,0.4 -0.89,1.07 0.48,0.34 0.39,0.07 0.54,0.58z"/>
   <path class="fil0" d="M130.41 154.54c-1.19,0.14 -0.85,1.44 -0.26,1.54 0.81,0.13 1.12,-1 0.26,-1.54z"/>
  </g>
 </g>
</svg>
